<svg width="232" height="212" viewBox="0 0 232 212" fill="none" xmlns="http://www.w3.org/2000/svg">
<path d="M2.57812 40V-1.19209e-06H19.9219C22.9687 -1.19209e-06 25.5273 0.410156 27.5977 1.23047C29.681 2.05078 31.25 3.20963 32.3047 4.70703C33.3724 6.20443 33.9063 7.96875 33.9063 10C33.9063 11.4714 33.5807 12.8125 32.9297 14.0234C32.2917 15.2344 31.3932 16.25 30.2344 17.0703C29.0755 17.8776 27.7214 18.4375 26.1719 18.75V19.1406C27.8906 19.2057 29.4531 19.6419 30.8594 20.4492C32.2656 21.2435 33.3854 22.3437 34.2188 23.75C35.0521 25.1432 35.4688 26.7839 35.4688 28.6719C35.4688 30.8594 34.8958 32.806 33.75 34.5117C32.6172 36.2174 31.0026 37.5586 28.9063 38.5352C26.8099 39.5117 24.3099 40 21.4063 40H2.57812ZM13.4375 31.3281H18.5156C20.3385 31.3281 21.7057 30.9896 22.6172 30.3125C23.5286 29.6224 23.9844 28.6068 23.9844 27.2656C23.9844 26.3281 23.7695 25.5339 23.3398 24.8828C22.9102 24.2318 22.2982 23.737 21.5039 23.3984C20.7227 23.0599 19.7786 22.8906 18.6719 22.8906H13.4375V31.3281ZM13.4375 16.1719H17.8906C18.8411 16.1719 19.681 16.0221 20.4102 15.7227C21.1393 15.4232 21.7057 14.9935 22.1094 14.4336C22.526 13.8607 22.7344 13.1641 22.7344 12.3437C22.7344 11.1068 22.2917 10.1628 21.4063 9.51172C20.5208 8.84766 19.401 8.51562 18.0469 8.51562H13.4375V16.1719ZM48.6039 -1.19209e-06V40H37.8227V-1.19209e-06H48.6039ZM60.8064 40.4688C58.8924 40.4688 57.1997 40.1563 55.7283 39.5312C54.27 38.8932 53.1242 37.9297 52.2908 36.6406C51.4575 35.3516 51.0408 33.7109 51.0408 31.7187C51.0408 30.0781 51.3208 28.6784 51.8807 27.5195C52.4406 26.3477 53.2218 25.3906 54.2244 24.6484C55.227 23.9062 56.3924 23.3398 57.7205 22.9492C59.0617 22.5586 60.507 22.3047 62.0564 22.1875C63.7361 22.0573 65.0838 21.901 66.0994 21.7187C67.1281 21.5234 67.8702 21.2565 68.326 20.918C68.7817 20.5664 69.0096 20.1042 69.0096 19.5312V19.4531C69.0096 18.6719 68.7101 18.0729 68.1111 17.6562C67.5122 17.2396 66.7439 17.0312 65.8064 17.0312C64.7778 17.0312 63.938 17.2591 63.2869 17.7148C62.6489 18.1576 62.2648 18.8411 62.1346 19.7656H52.2127C52.3429 17.9427 52.9223 16.263 53.951 14.7266C54.9926 13.1771 56.5096 11.9401 58.5018 11.0156C60.4939 10.0781 62.9809 9.60938 65.9627 9.60938C68.1111 9.60938 70.0382 9.86328 71.7439 10.3711C73.4497 10.8659 74.9015 11.5625 76.0994 12.4609C77.2973 13.3464 78.2088 14.388 78.8338 15.5859C79.4718 16.7708 79.7908 18.0599 79.7908 19.4531V40H69.7127V35.7812H69.4783C68.8794 36.901 68.1502 37.806 67.2908 38.4961C66.4445 39.1862 65.4744 39.6875 64.3807 40C63.2999 40.3125 62.1085 40.4688 60.8064 40.4688ZM64.3221 33.6719C65.1424 33.6719 65.9106 33.5026 66.6268 33.1641C67.3559 32.8255 67.9484 32.3372 68.4041 31.6992C68.8598 31.0612 69.0877 30.2865 69.0877 29.375V26.875C68.8012 26.9922 68.4952 27.1029 68.1697 27.207C67.8572 27.3112 67.5187 27.4089 67.1541 27.5C66.8025 27.5911 66.4249 27.6758 66.0213 27.7539C65.6307 27.832 65.2205 27.9036 64.7908 27.9688C63.9575 28.099 63.2739 28.3138 62.74 28.6133C62.2192 28.8997 61.8286 29.2578 61.5682 29.6875C61.3208 30.1042 61.1971 30.5729 61.1971 31.0937C61.1971 31.9271 61.49 32.5651 62.076 33.0078C62.6619 33.4505 63.4106 33.6719 64.3221 33.6719ZM97.7453 40.5469C94.4901 40.5469 91.7036 39.9023 89.3859 38.6133C87.0682 37.3112 85.2909 35.5013 84.0539 33.1836C82.8169 30.8529 82.1984 28.151 82.1984 25.0781C82.1984 22.0052 82.8169 19.3099 84.0539 16.9922C85.2909 14.6615 87.0682 12.8516 89.3859 11.5625C91.7036 10.2604 94.4901 9.60938 97.7453 9.60938C100.688 9.60938 103.234 10.1432 105.382 11.2109C107.543 12.2656 109.217 13.763 110.402 15.7031C111.586 17.6302 112.185 19.8958 112.198 22.5H102.198C102.055 20.9245 101.599 19.7266 100.831 18.9062C100.076 18.0729 99.0995 17.6562 97.9016 17.6562C96.9641 17.6562 96.1438 17.9297 95.4406 18.4766C94.7375 19.0104 94.1906 19.8242 93.8 20.918C93.4094 21.9987 93.2141 23.3594 93.2141 25C93.2141 26.6406 93.4094 28.0078 93.8 29.1016C94.1906 30.1823 94.7375 30.9961 95.4406 31.543C96.1438 32.0768 96.9641 32.3437 97.9016 32.3437C98.6958 32.3437 99.399 32.1615 100.011 31.7969C100.623 31.4193 101.118 30.8724 101.495 30.1562C101.886 29.4271 102.12 28.5417 102.198 27.5H112.198C112.159 30.1432 111.554 32.4479 110.382 34.4141C109.21 36.3672 107.55 37.8776 105.402 38.9453C103.266 40.013 100.714 40.5469 97.7453 40.5469ZM124.684 32.8906L124.762 20.0781H126.169L133.434 10H145.544L133.356 25.7031H130.309L124.684 32.8906ZM114.997 40V-1.19209e-06H125.778V40H114.997ZM133.512 40L126.637 28.125L133.669 20.4687L145.856 40H133.512ZM39.9219 73H28.9063C28.8281 72.0885 28.6198 71.2617 28.2813 70.5195C27.9557 69.7773 27.5 69.1393 26.9141 68.6055C26.3411 68.0586 25.6445 67.6419 24.8242 67.3555C24.0039 67.056 23.0729 66.9062 22.0313 66.9062C20.2083 66.9062 18.6654 67.349 17.4023 68.2344C16.1523 69.1198 15.2018 70.3893 14.5508 72.043C13.9128 73.6966 13.5938 75.6823 13.5938 78C13.5938 80.4479 13.9193 82.4987 14.5703 84.1523C15.2344 85.793 16.1914 87.0299 17.4414 87.8633C18.6914 88.6836 20.1953 89.0937 21.9531 89.0937C22.9557 89.0937 23.8542 88.9701 24.6484 88.7227C25.4427 88.4622 26.1328 88.0911 26.7188 87.6094C27.3047 87.1276 27.7799 86.5482 28.1445 85.8711C28.5221 85.181 28.776 84.4062 28.9063 83.5469L39.9219 83.625C39.7917 85.3177 39.3164 87.043 38.4961 88.8008C37.6758 90.5456 36.5104 92.1602 35 93.6445C33.5026 95.1159 31.6471 96.3008 29.4336 97.1992C27.2201 98.0977 24.6484 98.5469 21.7188 98.5469C18.0469 98.5469 14.7526 97.7591 11.8359 96.1836C8.93229 94.6081 6.63411 92.2904 4.94141 89.2305C3.26172 86.1706 2.42188 82.4271 2.42188 78C2.42188 73.5469 3.28125 69.7969 5 66.75C6.71875 63.6901 9.03646 61.3789 11.9531 59.8164C14.8698 58.2409 18.125 57.4531 21.7188 57.4531C24.2448 57.4531 26.569 57.7982 28.6914 58.4883C30.8138 59.1784 32.6758 60.1875 34.2773 61.5156C35.8789 62.8307 37.168 64.4518 38.1445 66.3789C39.1211 68.306 39.7135 70.513 39.9219 73ZM43.3549 98V68H53.8236V73.7031H54.1361C54.683 71.5937 55.5489 70.0508 56.7338 69.0742C57.9317 68.0977 59.3314 67.6094 60.933 67.6094C61.4018 67.6094 61.864 67.6484 62.3197 67.7266C62.7885 67.7917 63.2377 67.8893 63.6674 68.0195V77.2188C63.1335 77.0365 62.476 76.8997 61.6947 76.8086C60.9135 76.7174 60.2429 76.6719 59.683 76.6719C58.6283 76.6719 57.6778 76.9128 56.8314 77.3945C55.9981 77.8633 55.3406 78.5273 54.8588 79.3867C54.377 80.2331 54.1361 81.2292 54.1361 82.375V98H43.3549ZM78.2088 98.5469C75.0057 98.5469 72.2452 97.9349 69.9275 96.7109C67.6229 95.474 65.8455 93.7031 64.5955 91.3984C63.3585 89.0807 62.74 86.3073 62.74 83.0781C62.74 79.9792 63.365 77.2708 64.615 74.9531C65.865 72.6354 67.6294 70.832 69.908 69.543C72.1867 68.2539 74.8755 67.6094 77.9744 67.6094C80.24 67.6094 82.2908 67.9609 84.1268 68.6641C85.9627 69.3672 87.5317 70.3893 88.8338 71.7305C90.1359 73.0586 91.1385 74.6732 91.8416 76.5742C92.5447 78.4753 92.8963 80.6172 92.8963 83V85.5H66.0994V79.5625H82.9744C82.9614 78.7031 82.74 77.9479 82.3104 77.2969C81.8937 76.6328 81.3273 76.1185 80.6111 75.7539C79.908 75.3763 79.1072 75.1875 78.2088 75.1875C77.3364 75.1875 76.5356 75.3763 75.8064 75.7539C75.0773 76.1185 74.4913 76.6263 74.0486 77.2773C73.6189 77.9284 73.3911 78.6901 73.365 79.5625V85.9688C73.365 86.9323 73.5669 87.7917 73.9705 88.5469C74.3742 89.3021 74.9536 89.8945 75.7088 90.3242C76.464 90.7539 77.3755 90.9688 78.4432 90.9688C79.1854 90.9688 79.8624 90.8646 80.4744 90.6562C81.0994 90.4479 81.6333 90.1484 82.076 89.7578C82.5187 89.3542 82.8442 88.8724 83.0525 88.3125H92.8963C92.5577 90.3958 91.757 92.2057 90.4939 93.7422C89.2309 95.2656 87.5577 96.4505 85.4744 97.2969C83.4041 98.1302 80.9822 98.5469 78.2088 98.5469ZM104.005 98.4688C102.091 98.4688 100.398 98.1563 98.927 97.5312C97.4686 96.8932 96.3228 95.9297 95.4895 94.6406C94.6561 93.3516 94.2395 91.7109 94.2395 89.7187C94.2395 88.0781 94.5194 86.6784 95.0793 85.5195C95.6392 84.3477 96.4204 83.3906 97.423 82.6484C98.4257 81.9062 99.591 81.3398 100.919 80.9492C102.26 80.5586 103.706 80.3047 105.255 80.1875C106.935 80.0573 108.282 79.901 109.298 79.7187C110.327 79.5234 111.069 79.2565 111.525 78.918C111.98 78.5664 112.208 78.1042 112.208 77.5312V77.4531C112.208 76.6719 111.909 76.0729 111.31 75.6562C110.711 75.2396 109.943 75.0312 109.005 75.0312C107.976 75.0312 107.137 75.2591 106.486 75.7148C105.848 76.1576 105.463 76.8411 105.333 77.7656H95.4113C95.5415 75.9427 96.121 74.263 97.1496 72.7266C98.1913 71.1771 99.7082 69.9401 101.7 69.0156C103.693 68.0781 106.18 67.6094 109.161 67.6094C111.31 67.6094 113.237 67.8633 114.943 68.3711C116.648 68.8659 118.1 69.5625 119.298 70.4609C120.496 71.3464 121.407 72.388 122.032 73.5859C122.67 74.7708 122.989 76.0599 122.989 77.4531V98H112.911V93.7812H112.677C112.078 94.901 111.349 95.806 110.489 96.4961C109.643 97.1862 108.673 97.6875 107.579 98C106.499 98.3125 105.307 98.4688 104.005 98.4688ZM107.521 91.6719C108.341 91.6719 109.109 91.5026 109.825 91.1641C110.555 90.8255 111.147 90.3372 111.603 89.6992C112.058 89.0612 112.286 88.2865 112.286 87.375V84.875C112 84.9922 111.694 85.1029 111.368 85.207C111.056 85.3112 110.717 85.4089 110.353 85.5C110.001 85.5911 109.624 85.6758 109.22 85.7539C108.829 85.832 108.419 85.9036 107.989 85.9688C107.156 86.099 106.473 86.3138 105.939 86.6133C105.418 86.8997 105.027 87.2578 104.767 87.6875C104.519 88.1042 104.396 88.5729 104.396 89.0937C104.396 89.9271 104.689 90.5651 105.275 91.0078C105.861 91.4505 106.609 91.6719 107.521 91.6719ZM144.381 68V75.8125H124.616V68H144.381ZM128.444 60.8125H139.225V88.3516C139.225 88.7682 139.297 89.1198 139.44 89.4062C139.583 89.6797 139.805 89.888 140.104 90.0312C140.404 90.1615 140.788 90.2266 141.256 90.2266C141.582 90.2266 141.96 90.1875 142.389 90.1094C142.832 90.0312 143.157 89.9661 143.366 89.9141L144.928 97.4922C144.447 97.6354 143.756 97.8112 142.858 98.0195C141.973 98.2279 140.918 98.3646 139.694 98.4297C137.22 98.5599 135.143 98.306 133.463 97.668C131.784 97.0169 130.521 95.9948 129.674 94.6016C128.828 93.2083 128.418 91.4635 128.444 89.3672V60.8125ZM161.262 98.5469C158.007 98.5469 155.22 97.9023 152.902 96.6133C150.585 95.3112 148.807 93.5013 147.57 91.1836C146.333 88.8529 145.715 86.151 145.715 83.0781C145.715 80.0052 146.333 77.3099 147.57 74.9922C148.807 72.6615 150.585 70.8516 152.902 69.5625C155.22 68.2604 158.007 67.6094 161.262 67.6094C164.517 67.6094 167.303 68.2604 169.621 69.5625C171.939 70.8516 173.716 72.6615 174.953 74.9922C176.19 77.3099 176.809 80.0052 176.809 83.0781C176.809 86.151 176.19 88.8529 174.953 91.1836C173.716 93.5013 171.939 95.3112 169.621 96.6133C167.303 97.9023 164.517 98.5469 161.262 98.5469ZM161.34 90.5781C162.251 90.5781 163.039 90.2721 163.703 89.6602C164.367 89.0482 164.882 88.1758 165.246 87.043C165.611 85.9102 165.793 84.5625 165.793 83C165.793 81.4245 165.611 80.0768 165.246 78.957C164.882 77.8242 164.367 76.9518 163.703 76.3398C163.039 75.7279 162.251 75.4219 161.34 75.4219C160.376 75.4219 159.549 75.7279 158.859 76.3398C158.169 76.9518 157.642 77.8242 157.277 78.957C156.913 80.0768 156.73 81.4245 156.73 83C156.73 84.5625 156.913 85.9102 157.277 87.043C157.642 88.1758 158.169 89.0482 158.859 89.6602C159.549 90.2721 160.376 90.5781 161.34 90.5781ZM179.534 98V68H190.002V73.7031H190.315C190.862 71.5937 191.728 70.0508 192.913 69.0742C194.11 68.0977 195.51 67.6094 197.112 67.6094C197.58 67.6094 198.043 67.6484 198.498 67.7266C198.967 67.7917 199.416 67.8893 199.846 68.0195V77.2188C199.312 77.0365 198.655 76.8997 197.873 76.8086C197.092 76.7174 196.422 76.6719 195.862 76.6719C194.807 76.6719 193.857 76.9128 193.01 77.3945C192.177 77.8633 191.519 78.5273 191.038 79.3867C190.556 80.2331 190.315 81.2292 190.315 82.375V98H179.534ZM2.57812 156V116H19.8438C22.8125 116 25.4102 116.586 27.6367 117.758C29.8633 118.93 31.5951 120.577 32.832 122.699C34.069 124.822 34.6875 127.302 34.6875 130.141C34.6875 133.005 34.0495 135.486 32.7734 137.582C31.5104 139.678 29.7331 141.293 27.4414 142.426C25.1628 143.559 22.5 144.125 19.4531 144.125H9.14063V135.687H17.2656C18.5417 135.687 19.6289 135.466 20.5273 135.023C21.4388 134.568 22.1354 133.923 22.6172 133.09C23.112 132.257 23.3594 131.273 23.3594 130.141C23.3594 128.995 23.112 128.018 22.6172 127.211C22.1354 126.391 21.4388 125.766 20.5273 125.336C19.6289 124.893 18.5417 124.672 17.2656 124.672H13.4375V156H2.57812ZM37.1781 156V126H47.6469V131.703H47.9594C48.5062 129.594 49.3721 128.051 50.557 127.074C51.7549 126.098 53.1547 125.609 54.7562 125.609C55.225 125.609 55.6872 125.648 56.143 125.727C56.6117 125.792 57.0609 125.889 57.4906 126.02V135.219C56.9568 135.036 56.2992 134.9 55.518 134.809C54.7367 134.717 54.0661 134.672 53.5062 134.672C52.4516 134.672 51.501 134.913 50.6547 135.395C49.8214 135.863 49.1638 136.527 48.682 137.387C48.2003 138.233 47.9594 139.229 47.9594 140.375V156H37.1781ZM72.1102 156.547C68.8549 156.547 66.0685 155.902 63.7508 154.613C61.4331 153.311 59.6557 151.501 58.4188 149.184C57.1818 146.853 56.5633 144.151 56.5633 141.078C56.5633 138.005 57.1818 135.31 58.4188 132.992C59.6557 130.661 61.4331 128.852 63.7508 127.562C66.0685 126.26 68.8549 125.609 72.1102 125.609C75.3654 125.609 78.1518 126.26 80.4695 127.562C82.7872 128.852 84.5646 130.661 85.8016 132.992C87.0385 135.31 87.657 138.005 87.657 141.078C87.657 144.151 87.0385 146.853 85.8016 149.184C84.5646 151.501 82.7872 153.311 80.4695 154.613C78.1518 155.902 75.3654 156.547 72.1102 156.547ZM72.1883 148.578C73.0997 148.578 73.8875 148.272 74.5516 147.66C75.2156 147.048 75.7299 146.176 76.0945 145.043C76.4591 143.91 76.6414 142.562 76.6414 141C76.6414 139.424 76.4591 138.077 76.0945 136.957C75.7299 135.824 75.2156 134.952 74.5516 134.34C73.8875 133.728 73.0997 133.422 72.1883 133.422C71.2247 133.422 70.3979 133.728 69.7078 134.34C69.0177 134.952 68.4904 135.824 68.1258 136.957C67.7612 138.077 67.5789 139.424 67.5789 141C67.5789 142.562 67.7612 143.91 68.1258 145.043C68.4904 146.176 69.0177 147.048 69.7078 147.66C70.3979 148.272 71.2247 148.578 72.1883 148.578ZM104.835 167.875C101.827 167.875 99.2492 167.445 97.1008 166.586C94.9654 165.74 93.3052 164.568 92.1203 163.07C90.9484 161.586 90.2909 159.88 90.1477 157.953H100.538C100.642 158.591 100.903 159.105 101.32 159.496C101.736 159.887 102.27 160.167 102.921 160.336C103.585 160.518 104.327 160.609 105.148 160.609C106.541 160.609 107.693 160.271 108.605 159.594C109.529 158.917 109.991 157.693 109.991 155.922V150.844H109.679C109.288 151.859 108.689 152.725 107.882 153.441C107.075 154.145 106.105 154.685 104.972 155.062C103.839 155.427 102.596 155.609 101.241 155.609C99.106 155.609 97.1398 155.115 95.343 154.125C93.5591 153.135 92.1268 151.566 91.0461 149.418C89.9784 147.27 89.4445 144.464 89.4445 141C89.4445 137.38 90.0044 134.437 91.1242 132.172C92.257 129.906 93.7154 128.246 95.4992 127.191C97.2961 126.137 99.1841 125.609 101.163 125.609C102.648 125.609 103.95 125.87 105.07 126.391C106.189 126.898 107.127 127.582 107.882 128.441C108.637 129.288 109.21 130.219 109.601 131.234H109.835V126H120.616V155.922C120.616 158.461 119.959 160.616 118.644 162.387C117.342 164.171 115.506 165.531 113.136 166.469C110.766 167.406 107.999 167.875 104.835 167.875ZM105.226 147.953C106.215 147.953 107.062 147.68 107.765 147.133C108.481 146.573 109.028 145.779 109.405 144.75C109.796 143.708 109.991 142.458 109.991 141C109.991 139.516 109.796 138.246 109.405 137.191C109.028 136.124 108.481 135.31 107.765 134.75C107.062 134.177 106.215 133.891 105.226 133.891C104.236 133.891 103.39 134.177 102.687 134.75C101.997 135.31 101.463 136.124 101.085 137.191C100.721 138.246 100.538 139.516 100.538 141C100.538 142.484 100.721 143.747 101.085 144.789C101.463 145.818 101.997 146.605 102.687 147.152C103.39 147.686 104.236 147.953 105.226 147.953ZM124.45 156V126H134.919V131.703H135.231C135.778 129.594 136.644 128.051 137.829 127.074C139.027 126.098 140.426 125.609 142.028 125.609C142.497 125.609 142.959 125.648 143.415 125.727C143.883 125.792 144.333 125.889 144.762 126.02V135.219C144.228 135.036 143.571 134.9 142.79 134.809C142.008 134.717 141.338 134.672 140.778 134.672C139.723 134.672 138.773 134.913 137.926 135.395C137.093 135.863 136.435 136.527 135.954 137.387C135.472 138.233 135.231 139.229 135.231 140.375V156H124.45ZM153.61 156.469C151.696 156.469 150.004 156.156 148.532 155.531C147.074 154.893 145.928 153.93 145.095 152.641C144.261 151.352 143.845 149.711 143.845 147.719C143.845 146.078 144.125 144.678 144.685 143.52C145.244 142.348 146.026 141.391 147.028 140.648C148.031 139.906 149.196 139.34 150.524 138.949C151.866 138.559 153.311 138.305 154.86 138.187C156.54 138.057 157.888 137.901 158.903 137.719C159.932 137.523 160.674 137.257 161.13 136.918C161.586 136.566 161.813 136.104 161.813 135.531V135.453C161.813 134.672 161.514 134.073 160.915 133.656C160.316 133.24 159.548 133.031 158.61 133.031C157.582 133.031 156.742 133.259 156.091 133.715C155.453 134.158 155.069 134.841 154.938 135.766H145.017C145.147 133.943 145.726 132.263 146.755 130.727C147.797 129.177 149.313 127.94 151.306 127.016C153.298 126.078 155.785 125.609 158.767 125.609C160.915 125.609 162.842 125.863 164.548 126.371C166.254 126.866 167.705 127.562 168.903 128.461C170.101 129.346 171.013 130.388 171.638 131.586C172.276 132.771 172.595 134.06 172.595 135.453V156H162.517V151.781H162.282C161.683 152.901 160.954 153.806 160.095 154.496C159.248 155.186 158.278 155.687 157.185 156C156.104 156.313 154.912 156.469 153.61 156.469ZM157.126 149.672C157.946 149.672 158.715 149.503 159.431 149.164C160.16 148.826 160.752 148.337 161.208 147.699C161.664 147.061 161.892 146.286 161.892 145.375V142.875C161.605 142.992 161.299 143.103 160.974 143.207C160.661 143.311 160.323 143.409 159.958 143.5C159.606 143.591 159.229 143.676 158.825 143.754C158.435 143.832 158.024 143.904 157.595 143.969C156.761 144.099 156.078 144.314 155.544 144.613C155.023 144.9 154.632 145.258 154.372 145.688C154.125 146.104 154.001 146.573 154.001 147.094C154.001 147.927 154.294 148.565 154.88 149.008C155.466 149.451 156.215 149.672 157.126 149.672ZM176.096 156V126H186.33V131.703H186.643C187.268 129.828 188.336 128.344 189.846 127.25C191.357 126.156 193.153 125.609 195.237 125.609C197.346 125.609 199.163 126.169 200.686 127.289C202.209 128.396 203.127 129.867 203.44 131.703H203.752C204.26 129.867 205.341 128.396 206.995 127.289C208.648 126.169 210.588 125.609 212.815 125.609C215.692 125.609 218.023 126.534 219.807 128.383C221.604 130.232 222.502 132.693 222.502 135.766V156H211.721V138.5C211.721 137.185 211.389 136.156 210.725 135.414C210.061 134.659 209.169 134.281 208.049 134.281C206.942 134.281 206.064 134.659 205.413 135.414C204.774 136.156 204.455 137.185 204.455 138.5V156H194.143V138.5C194.143 137.185 193.811 136.156 193.147 135.414C192.483 134.659 191.591 134.281 190.471 134.281C189.729 134.281 189.091 134.451 188.557 134.789C188.023 135.128 187.607 135.616 187.307 136.254C187.021 136.879 186.877 137.628 186.877 138.5V156H176.096Z" fill="white"/>
<g opacity="0.6">
<path d="M134.687 208.023C134.729 207.809 134.772 207.638 134.772 207.509C134.772 204.039 134.772 200.526 134.772 197.055C134.772 196.884 134.687 196.67 134.687 196.455C134.131 196.455 133.661 196.455 133.148 196.455C133.105 196.627 133.062 196.798 133.062 196.927C133.062 200.483 133.062 204.082 133.062 207.638C133.062 207.766 133.105 207.852 133.148 208.023C133.661 208.023 134.131 208.023 134.687 208.023Z" fill="white"/>
<path d="M103.99 203.267C102.664 203.267 100.142 203.267 100.142 203.267V201.597H105.7C105.914 202.368 105.828 203.139 105.657 203.996C105.144 206.267 103.434 207.852 101.125 208.195C98.8591 208.494 96.8924 207.852 95.3533 206.095C92.959 203.353 93.4721 199.497 96.1656 197.355C98.4743 195.513 101.724 195.598 103.819 197.312C103.947 197.398 104.032 197.484 104.161 197.569L103.049 198.812C102.921 198.726 102.75 198.597 102.579 198.512C101.125 197.484 99.5859 197.398 98.0895 198.169C96.5931 198.94 95.8236 200.226 95.6953 201.896C95.5243 203.782 96.6359 205.538 98.3033 206.267C99.928 206.995 101.937 206.609 103.092 205.367C103.648 204.81 103.947 204.167 103.99 203.267Z" fill="#E3E3E3"/>
<path d="M130.113 207.466C129.77 207.681 129.642 207.766 129.514 207.852C128.702 208.366 127.804 208.409 126.906 208.109C125.11 207.509 124.084 205.881 124.212 203.953C124.341 202.239 125.752 200.697 127.505 200.397C128.146 200.269 128.787 200.397 129.386 200.74C129.599 200.868 129.77 200.997 129.984 201.125C130.07 200.954 130.198 200.825 130.284 200.697C130.754 200.697 131.224 200.697 131.694 200.697C131.737 200.997 131.737 201.211 131.737 201.425C131.737 203.61 131.737 205.753 131.737 207.938C131.737 208.666 131.609 209.394 131.224 210.037C130.839 210.765 130.284 211.237 129.557 211.536C127.676 212.265 125.666 211.622 124.683 209.908C124.64 209.823 124.597 209.694 124.512 209.523C124.982 209.309 125.41 209.137 125.88 208.923C126.094 209.18 126.222 209.394 126.393 209.566C127.034 210.294 127.847 210.38 128.744 210.165C129.557 209.951 129.899 209.309 130.027 208.537C130.07 208.238 130.07 207.938 130.113 207.466ZM130.198 204.339C130.198 203.953 130.113 203.653 130.027 203.353C129.728 202.496 129.129 201.982 128.231 201.897C127.376 201.811 126.564 202.325 126.179 203.139C125.794 203.996 125.794 204.853 126.307 205.667C126.778 206.395 127.462 206.738 128.317 206.652C129.129 206.567 129.685 206.138 129.984 205.41C130.113 205.067 130.198 204.853 130.198 204.339Z" fill="#E3E3E3"/>
<path d="M110.616 208.28C108.607 208.323 106.726 206.738 106.768 204.381C106.768 202.068 108.35 200.44 110.573 200.397C112.882 200.354 114.507 202.068 114.507 204.338C114.507 206.609 112.711 208.323 110.616 208.28ZM112.797 204.296C112.797 204.167 112.797 204.081 112.797 203.953C112.626 202.839 111.728 201.982 110.659 201.939C109.633 201.896 108.735 202.668 108.478 203.739C108.35 204.381 108.436 204.981 108.692 205.538C109.376 206.909 111.215 207.123 112.198 205.924C112.626 205.452 112.797 204.895 112.797 204.296Z" fill="#E3E3E3"/>
<path d="M141.614 205.71C141.058 206.309 140.502 206.738 139.69 206.738C138.877 206.738 138.236 206.438 137.808 205.581C139.561 204.767 141.272 204.167 142.939 203.396C142.725 202.539 142.597 202.239 142.084 201.639C141.143 200.568 139.989 200.183 138.621 200.525C137.039 200.954 136.184 202.068 135.884 203.653C135.414 206.566 137.851 209.051 140.972 208.109C141.785 207.852 142.469 207.381 142.939 206.566C142.725 206.395 142.511 206.267 142.34 206.138C142.084 205.967 141.87 205.838 141.614 205.71ZM138.664 202.154C139.604 201.639 140.716 202.196 140.929 202.796L137.637 204.167C137.424 203.824 137.552 202.711 138.664 202.154Z" fill="#E3E3E3"/>
<path d="M119.296 208.28C117.543 208.366 115.448 206.866 115.448 204.338C115.491 201.768 117.415 200.44 119.339 200.397C121.477 200.354 123.23 202.111 123.23 204.338C123.187 206.995 121.135 208.366 119.296 208.28ZM119.382 206.695C120.066 206.695 120.664 206.395 121.092 205.795C121.69 204.938 121.69 203.696 121.092 202.796C120.451 201.896 119.296 201.639 118.356 202.153C117.073 202.882 116.774 204.724 117.757 205.881C118.142 206.438 118.698 206.695 119.382 206.695Z" fill="#E3E3E3"/>
<path d="M134.687 208.023C134.131 208.023 133.618 208.023 133.148 208.023C133.105 207.895 133.062 207.766 133.062 207.638C133.062 204.082 133.062 200.483 133.062 196.927C133.062 196.798 133.105 196.627 133.148 196.455C133.661 196.455 134.131 196.455 134.687 196.455C134.729 196.67 134.772 196.841 134.772 197.055C134.772 200.526 134.772 204.039 134.772 207.509C134.772 207.638 134.729 207.809 134.687 208.023Z" fill="#E3E3E3"/>
<path d="M160.195 203.582C160.195 206.153 158.998 207.695 157.202 208.038C154.38 208.638 152.071 206.367 152.499 203.496C153.012 200.283 156.603 199.426 158.656 201.011C159.767 201.825 160.195 202.896 160.195 203.582ZM158.613 204.139C158.613 204.053 158.613 203.882 158.57 203.71C158.442 202.725 157.63 201.911 156.689 201.782C155.663 201.654 154.679 202.168 154.295 203.111C153.995 203.839 153.995 204.61 154.295 205.339C154.722 206.324 155.791 206.838 156.817 206.624C157.929 206.367 158.613 205.467 158.613 204.139Z" fill="#E3E3E3"/>
<path d="M150.233 200.411H152.029V201.996H150.19V207.909H148.523C148.523 207.909 148.523 202.339 148.523 201.996H147.197V200.454H148.48C148.48 199.511 148.565 198.783 149.207 198.14C149.549 197.798 149.976 197.584 150.404 197.455C150.96 197.326 151.558 197.284 152.157 197.584C152.157 198.012 152.157 198.483 152.157 198.997C151.9 198.955 151.729 198.955 151.515 198.912C150.575 198.912 150.233 199.212 150.233 200.411Z" fill="#E3E3E3"/>
<path d="M165.923 200.454V201.996C165.923 201.996 165.496 201.911 165.282 201.868C163.999 201.697 163.059 202.468 162.973 203.753C162.931 204.181 162.888 207.866 162.888 207.866H161.349V200.583H162.802C162.802 200.583 162.888 201.011 162.973 201.268C163.059 201.225 163.144 201.225 163.187 201.182C163.871 200.454 164.683 200.197 165.667 200.368C165.752 200.368 165.923 200.454 165.923 200.454Z" fill="#E3E3E3"/>
<path d="M178.237 205.274C178.622 205.659 178.964 206.002 179.306 206.345C178.066 208.101 175.415 208.616 173.491 207.973C171.268 207.245 169.814 205.145 169.814 202.703C169.857 200.304 171.354 198.333 173.577 197.605C175.715 196.919 178.237 197.733 178.964 199.104C178.921 199.19 178.836 199.276 178.75 199.361C178.494 199.618 178.237 199.833 177.938 200.132C176.954 199.19 175.8 198.719 174.432 199.018C173.534 199.233 172.807 199.618 172.251 200.347C171.097 201.846 171.225 204.203 172.508 205.531C173.32 206.345 174.304 206.688 175.458 206.645C176.57 206.645 177.382 206.045 178.237 205.274Z" fill="#E3E3E3"/>
<path d="M191.235 205.66C191.662 205.874 192.047 206.045 192.517 206.259C192.389 206.474 192.346 206.645 192.261 206.773C191.235 208.144 189.61 208.53 188.028 208.059C186.489 207.587 185.548 206.259 185.463 204.546C185.42 203.689 185.591 202.875 186.061 202.103C187.216 200.218 189.439 200.004 190.893 200.775C192.261 201.461 192.945 203.132 192.603 204.717H191.876H187.943H187.045C187.13 205.66 187.515 206.302 188.327 206.602C189.482 207.073 190.465 206.731 191.235 205.66ZM190.978 203.389C190.807 202.318 190.08 201.718 189.054 201.761C188.071 201.804 187.344 202.446 187.216 203.346L190.978 203.389Z" fill="#E3E3E3"/>
<path d="M198.546 203.56C198.589 202.618 198.332 202.146 197.648 201.889C196.921 201.589 196.195 201.718 195.553 202.146C195.339 202.275 195.168 202.446 194.955 202.575L193.929 201.803C194.442 201.075 195.126 200.69 195.938 200.475C196.622 200.304 197.349 200.347 198.033 200.518C199.23 200.775 200.128 201.675 200.171 202.875C200.256 204.545 200.171 206.302 200.171 207.973H198.717C198.674 207.759 198.632 207.545 198.589 207.33C198.503 207.373 198.418 207.373 198.375 207.416C197.477 208.316 196.408 208.401 195.297 208.059C194.313 207.759 193.758 206.988 193.672 205.959C193.586 204.845 194.057 204.074 195.04 203.603C195.938 203.174 196.836 203.217 197.776 203.346C197.99 203.389 198.247 203.474 198.546 203.56ZM198.589 204.845C198.204 204.717 197.947 204.588 197.605 204.545C197.007 204.46 196.451 204.417 195.895 204.674C195.468 204.888 195.254 205.231 195.254 205.745C195.254 206.259 195.51 206.602 195.938 206.773C196.579 207.03 197.221 206.945 197.776 206.559C198.332 206.174 198.674 205.659 198.589 204.845Z" fill="#E3E3E3"/>
<path d="M210.303 208.23C208.293 208.316 206.455 206.817 206.412 204.374C206.369 202.189 207.823 200.39 210.303 200.39C212.782 200.39 214.151 202.275 214.151 204.332C214.151 206.602 212.526 208.23 210.303 208.23ZM212.526 204.203C212.526 204.117 212.526 203.903 212.483 203.689C212.312 202.661 211.414 201.889 210.431 201.847C209.277 201.804 208.293 202.532 208.079 203.646C207.823 205.017 208.379 206.217 209.49 206.602C209.918 206.774 210.345 206.817 210.773 206.688C211.885 206.431 212.526 205.574 212.526 204.203Z" fill="#E3E3E3"/>
<path d="M226.165 201.975L224.882 202.532C224.711 202.36 224.583 202.232 224.412 202.103C223.814 201.632 223.129 201.589 222.445 201.889C221.89 202.146 221.847 202.746 222.36 203.089C222.616 203.26 222.873 203.346 223.172 203.432C223.6 203.56 224.07 203.646 224.54 203.817C224.925 203.989 225.353 204.16 225.695 204.417C226.55 205.145 226.635 206.388 225.909 207.245C225.866 207.33 225.78 207.373 225.738 207.416C224.797 208.23 223.643 208.316 222.488 208.144C221.462 207.973 220.692 207.373 220.222 206.388L221.548 205.702C221.676 205.831 221.804 206.002 221.932 206.131C222.531 206.773 223.215 206.859 224.027 206.688C224.498 206.559 224.754 206.302 224.797 205.917C224.797 205.488 224.54 205.274 224.198 205.145C223.856 205.017 223.557 204.931 223.215 204.803C222.916 204.717 222.574 204.674 222.274 204.546C221.847 204.331 221.419 204.16 221.077 203.86C220.265 203.132 220.265 201.889 221.035 201.118C222.317 199.876 225.182 200.047 226.08 201.632C226.08 201.761 226.122 201.803 226.165 201.975Z" fill="#E3E3E3"/>
<path d="M205.729 207.887C205.131 208.102 204.575 208.144 204.019 208.016C203.121 207.845 202.565 207.245 202.437 206.345C202.351 205.874 202.351 205.402 202.351 204.931C202.351 203.989 202.351 202.061 202.351 202.061H201.069V200.475C201.069 200.475 201.539 200.518 201.753 200.475C201.924 200.433 202.266 200.475 202.266 200.475V198.547H204.104V200.518H205.772V202.103H204.019C204.019 202.103 204.019 202.36 204.019 202.532C204.019 203.517 204.019 204.46 204.019 205.445C204.019 205.574 204.019 205.659 204.062 205.788C204.147 206.345 204.446 206.602 205.002 206.602C205.216 206.602 205.473 206.559 205.772 206.516C205.857 206.945 205.815 207.416 205.729 207.887Z" fill="#E3E3E3"/>
<path d="M185.121 200.561V202.103C185.121 202.103 184.693 202.018 184.479 201.975C183.197 201.803 182.256 202.575 182.171 203.86C182.128 204.288 182.085 207.973 182.085 207.973H180.546V200.689H182C182 200.689 182.085 201.118 182.171 201.375C182.256 201.332 182.342 201.332 182.384 201.289C183.068 200.561 183.881 200.304 184.864 200.475C184.95 200.475 185.121 200.561 185.121 200.561Z" fill="#E3E3E3"/>
<path d="M219.837 200.561V202.103C219.837 202.103 219.409 202.018 219.196 201.975C217.913 201.803 216.972 202.575 216.887 203.86C216.844 204.288 216.801 207.973 216.801 207.973H215.262V200.689H216.716C216.716 200.689 216.801 201.118 216.887 201.375C216.972 201.332 217.058 201.332 217.101 201.289C217.785 200.561 218.597 200.304 219.58 200.475C219.666 200.475 219.837 200.561 219.837 200.561Z" fill="#E3E3E3"/>
<g clip-path="url(#clip0_1538_5890)">
<g clip-path="url(#clip1_1538_5890)">
<path d="M23.2174 205.955C23.2058 205.756 23.1482 205.271 23.0992 204.913C22.9936 204.216 22.7495 203.796 22.3017 203.564C23.0001 203.132 23.367 202.386 23.367 201.389C23.367 199.561 22.2734 198.512 20.367 198.512H16.3472V207.621H18.2651V204.266H19.9466C20.9669 204.319 20.97 204.339 21.1418 205.455L21.2055 205.969C21.2879 206.677 21.343 207.145 21.5138 207.541L21.5481 207.621H23.5151V207.344L23.505 207.318C23.3069 206.837 23.269 206.561 23.2174 205.955ZM18.2646 200.474H20.037C20.6566 200.474 21.3955 200.646 21.3955 201.467C21.3955 202.134 20.9563 202.471 20.0901 202.471H18.2651L18.2646 200.474Z" fill="#E3E3E3"/>
<path d="M26.1137 203.964H30.5142V202.091H26.1137V200.474H30.8861V198.512H24.1963V207.621H30.9392V205.659H26.1137V203.964Z" fill="#E3E3E3"/>
<path d="M35.2662 198.512L31.4854 207.621H33.5575L34.3009 205.775H38.253L38.9949 207.621H41.067L37.2852 198.512H35.2662ZM35.0918 203.814L36.285 200.918L37.4606 203.814H35.0918Z" fill="#E3E3E3"/>
<path d="M47.6236 198.512H39.3716V200.486H42.5389V207.621H44.4563V200.486H47.6236V198.512Z" fill="#E3E3E3"/>
<path d="M51.9388 198.333H51.8119C50.5682 198.333 49.4366 198.808 48.628 199.67C47.8193 200.533 47.3847 201.723 47.3983 203.02C47.3827 204.361 47.8294 205.584 48.6563 206.465C49.4649 207.326 50.5853 207.8 51.8124 207.8H51.9378C53.135 207.8 54.2332 207.333 55.0282 206.486C55.8576 205.602 56.3048 204.371 56.2917 203.023C56.3074 201.711 55.8697 200.513 55.0596 199.65C54.2626 198.799 53.1547 198.333 51.9413 198.333H51.9388ZM51.8756 205.838C50.3938 205.838 49.3593 204.657 49.3593 202.966C49.3593 201.394 50.3938 200.296 51.8756 200.296C53.32 200.296 54.3288 201.394 54.3288 202.966C54.3288 204.658 53.318 205.838 51.8756 205.838" fill="#E3E3E3"/>
<path d="M63.7765 205.955C63.7654 205.759 63.7088 205.283 63.6583 204.913C63.5526 204.216 63.3085 203.796 62.8608 203.564C63.5592 203.132 63.9256 202.386 63.9256 201.389C63.9256 199.561 62.8325 198.512 60.9256 198.512H56.9062V207.621H58.8237V204.266H60.5051C61.5255 204.319 61.5291 204.339 61.7009 205.455L61.7646 205.969C61.847 206.677 61.902 207.145 62.0724 207.541L62.1072 207.621H64.0742V207.344L64.0641 207.318C63.866 206.836 63.8281 206.56 63.7765 205.955V205.955ZM58.8237 200.474H60.5966C61.2162 200.474 61.9546 200.646 61.9546 201.467C61.9546 202.134 61.5159 202.471 60.6502 202.471H58.8237V200.474Z" fill="#E3E3E3"/>
<path d="M71.124 203.208C70.7849 202.826 70.4164 202.58 69.9909 202.454C69.5866 202.335 69.0509 202.231 68.3448 202.135C67.8677 202.077 67.5039 202.007 67.2835 201.959C66.576 201.788 66.491 201.427 66.491 201.175C66.491 200.382 67.2704 200.218 67.9238 200.218C68.8204 200.218 69.3516 200.635 69.4208 201.391L69.4319 201.515H71.5076V201.378C71.5076 199.557 70.0803 198.334 67.9557 198.334C65.8684 198.334 64.519 199.459 64.519 201.199C64.519 201.903 64.6848 202.446 65.0082 202.811C65.3069 203.179 65.7021 203.446 66.1443 203.579C66.6805 203.729 67.2262 203.839 67.7773 203.907C68.2907 203.981 68.6455 204.05 68.8497 204.094C69.5411 204.265 69.6214 204.618 69.6214 204.868C69.6214 205.524 69.0337 205.917 68.0502 205.917C67.0273 205.917 66.4238 205.394 66.3945 204.481L66.39 204.35H64.2749V204.486C64.2749 206.498 65.7405 207.799 68.0077 207.799C70.1915 207.799 71.6026 206.639 71.6026 204.844C71.6026 204.142 71.4414 203.592 71.1209 203.207" fill="#E3E3E3"/>
<path d="M10.9778 204.151C10.8175 205.211 10.0079 205.87 8.8632 205.87C7.41828 205.87 6.48483 204.742 6.48483 202.998C6.48483 201.35 7.40413 200.328 8.88442 200.328C9.93109 200.328 10.7155 200.942 10.8822 201.894L10.9024 202.005H12.8689L12.8497 201.851C12.593 199.766 11.0167 198.365 8.92839 198.365H8.86471C7.6639 198.365 6.56215 198.835 5.76212 199.687C4.94793 200.555 4.50824 201.752 4.52694 203.052C4.51077 204.395 4.96006 205.622 5.79042 206.509C6.59197 207.363 7.6917 207.833 8.88847 207.833H8.95012C10.9884 207.833 12.6319 206.337 12.9468 204.195L12.97 204.036H10.9959L10.9778 204.151Z" fill="#E3E3E3"/>
<path d="M8.74596 210.199C5.02628 210.199 2 207.013 2 203.098C2 199.184 5.02628 196 8.74596 196C12.4656 196 15.4939 199.184 15.4939 203.098C15.4939 207.012 12.4661 210.199 8.74596 210.199ZM8.74596 197.368C7.66846 197.368 6.61516 197.704 5.71927 198.334C4.82338 198.964 4.12515 199.859 3.71288 200.907C3.30061 201.954 3.19281 203.107 3.40313 204.219C3.61345 205.331 4.13244 206.352 4.89445 207.154C5.65647 207.955 6.62728 208.501 7.68411 208.722C8.74094 208.943 9.83632 208.829 10.8317 208.395C11.8271 207.961 12.6778 207.226 13.2762 206.283C13.8746 205.34 14.1939 204.232 14.1936 203.098C14.192 201.579 13.6175 200.122 12.5962 199.047C11.5749 197.973 10.1902 197.368 8.74596 197.367" fill="#E3E3E3"/>
</g>
</g>
<path d="M82.3607 206.737V199.29H84.2434V206.737H82.3607ZM79.5786 203.955V202.072H87.0255V203.955H79.5786Z" fill="white"/>
</g>
<defs>
<clipPath id="clip0_1538_5890">
<rect width="69.605" height="14.5526" fill="white" transform="translate(2 196)"/>
</clipPath>
<clipPath id="clip1_1538_5890">
<rect width="69.605" height="14.5526" fill="white" transform="translate(2 196)"/>
</clipPath>
</defs>
</svg>
