<svg width="124" height="124" viewBox="0 0 124 124" fill="none" xmlns="http://www.w3.org/2000/svg">
<path d="M120.33 21.1766C125.172 16.3352 125.172 8.47259 120.33 3.63111C115.489 -1.21037 107.626 -1.21037 102.785 3.63111L62 44.4545L21.1766 3.66984C16.3352 -1.17164 8.47259 -1.17164 3.63111 3.66984C-1.21037 8.51132 -1.21037 16.3739 3.63111 21.2154L44.4545 62L3.66984 102.823C-1.17164 107.665 -1.17164 115.527 3.66984 120.369C8.51132 125.21 16.3739 125.21 21.2154 120.369L62 79.5455L102.823 120.33C107.665 125.172 115.527 125.172 120.369 120.33C125.21 115.489 125.21 107.626 120.369 102.785L79.5455 62L120.33 21.1766Z" fill="white"/>
</svg>
