<svg width="136" height="33" viewBox="0 0 136 33" fill="none" xmlns="http://www.w3.org/2000/svg">
<path d="M50.4691 8.24335C51.8062 8.24335 52.9803 8.47091 53.9912 8.92602C55.0022 9.38113 55.899 9.99885 56.6817 10.779L55.0919 12.3638C54.5538 11.7624 53.8934 11.291 53.1108 10.9496C52.3444 10.6083 51.4638 10.4377 50.4691 10.4377C49.5723 10.4377 48.7489 10.6002 47.9989 10.9253C47.2488 11.2341 46.5966 11.6811 46.0422 12.2662C45.4878 12.8513 45.0557 13.5422 44.7459 14.3386C44.4524 15.1351 44.3056 16.0047 44.3056 16.9474C44.3056 17.8901 44.4524 18.7598 44.7459 19.5562C45.0557 20.3526 45.4878 21.0434 46.0422 21.6285C46.5966 22.2137 47.2488 22.6688 47.9989 22.9939C48.7489 23.3027 49.5723 23.4571 50.4691 23.4571C51.529 23.4571 52.4503 23.2864 53.233 22.9451C54.0156 22.5875 54.676 22.1081 55.2141 21.5067L56.804 23.067C56.0214 23.8797 55.1 24.5136 54.0402 24.9687C52.9966 25.4238 51.8144 25.6514 50.4936 25.6514C49.2707 25.6514 48.1375 25.4319 47.0939 24.9931C46.0504 24.538 45.1372 23.9122 44.3545 23.1158C43.5882 22.3194 42.993 21.3928 42.569 20.3363C42.1451 19.2798 41.9331 18.1501 41.9331 16.9474C41.9331 15.7283 42.1451 14.5906 42.569 13.5341C42.993 12.4776 43.5882 11.5592 44.3545 10.779C45.1372 9.9826 46.0422 9.36488 47.0695 8.92602C48.113 8.47093 49.2462 8.24335 50.4691 8.24335ZM73.9054 13.5829C74.9816 13.5829 75.9274 13.8266 76.7427 14.3142C77.5743 14.8018 78.2183 15.4764 78.6749 16.3379C79.1477 17.1993 79.3842 18.1746 79.3842 19.2635C79.3842 19.4261 79.376 19.605 79.3597 19.8C79.3434 19.9788 79.3108 20.1901 79.2619 20.4339H70.1636C70.241 20.8849 70.3795 21.2993 70.579 21.6773C70.9051 22.2787 71.3699 22.7501 71.9732 23.0914C72.5765 23.4165 73.2695 23.5791 74.0522 23.5791C74.7044 23.5791 75.2995 23.4653 75.8376 23.2378C76.392 23.0102 76.8649 22.6688 77.2562 22.2137L78.6749 23.6521C78.1205 24.3023 77.4356 24.7981 76.6203 25.1394C75.8214 25.4808 74.9653 25.6514 74.0522 25.6514C72.8945 25.6514 71.8509 25.3914 70.9214 24.8713C69.992 24.3349 69.2583 23.6115 68.7202 22.7013C68.1821 21.7911 67.913 20.7589 67.913 19.6049C67.913 18.4671 68.174 17.4432 68.6958 16.533C69.2338 15.6228 69.9512 14.9075 70.848 14.3874C71.7612 13.851 72.7803 13.5829 73.9054 13.5829ZM86.7257 13.5829C87.6063 13.5829 88.3889 13.7698 89.0738 14.1436C89.6844 14.455 90.1898 14.8774 90.5902 15.4106V13.8267H92.816V25.4076H90.5902V23.832C90.203 24.3634 89.7058 24.7911 89.0983 25.115C88.4134 25.4726 87.6226 25.6514 86.7257 25.6514C85.6659 25.6514 84.7039 25.3914 83.8397 24.8713C82.9755 24.3349 82.2906 23.6115 81.7851 22.7013C81.2959 21.7911 81.0513 20.767 81.0513 19.6293C81.0513 18.4915 81.296 17.4676 81.7851 16.5574C82.2906 15.6471 82.9673 14.9238 83.8152 14.3874C84.6794 13.851 85.6496 13.5829 86.7257 13.5829ZM109.926 13.5829C111.051 13.5829 112.071 13.851 112.984 14.3874C113.913 14.9075 114.647 15.6228 115.185 16.533C115.723 17.4432 115.992 18.4591 115.992 19.5806C115.992 20.7184 115.723 21.7505 115.185 22.6769C114.647 23.5871 113.913 24.3105 112.984 24.8469C112.071 25.3833 111.051 25.6514 109.926 25.6514C108.785 25.6514 107.758 25.3833 106.845 24.8469C105.931 24.3105 105.206 23.5871 104.668 22.6769C104.13 21.7504 103.861 20.7184 103.861 19.5806C103.861 18.4591 104.13 17.4513 104.668 16.5574C105.206 15.6472 105.931 14.9238 106.845 14.3874C107.758 13.851 108.785 13.5829 109.926 13.5829ZM131.818 13.5829C132.731 13.5829 133.538 13.7454 134.239 14.0705C134.956 14.3793 135.543 14.8507 136 15.4846L134.581 16.8987C134.255 16.4761 133.848 16.1509 133.358 15.9234C132.886 15.6958 132.348 15.5821 131.744 15.5821C131.108 15.5821 130.619 15.6958 130.277 15.9234C129.951 16.1347 129.788 16.4354 129.788 16.8255C129.788 17.2156 129.934 17.5163 130.228 17.7276C130.521 17.9389 130.904 18.1176 131.377 18.2639C131.866 18.4102 132.372 18.5647 132.894 18.7272C133.415 18.8735 133.913 19.0767 134.386 19.3367C134.859 19.5968 135.242 19.9463 135.535 20.3851C135.845 20.824 136 21.401 136 22.1162C136 23.2052 135.609 24.0666 134.826 24.7005C134.06 25.3344 133.024 25.6514 131.72 25.6514C131.068 25.6514 130.448 25.5701 129.861 25.4076C129.29 25.2288 128.76 24.985 128.271 24.6761C127.782 24.3511 127.358 23.9692 126.999 23.5303L128.418 22.1162C128.842 22.6363 129.331 23.0264 129.885 23.2864C130.44 23.5302 131.059 23.6521 131.744 23.6521C132.429 23.6521 132.959 23.5384 133.334 23.3108C133.709 23.067 133.897 22.7338 133.897 22.3112C133.897 21.8886 133.742 21.5635 133.432 21.336C133.138 21.0921 132.755 20.8971 132.282 20.7508C131.809 20.5883 131.304 20.4338 130.766 20.2876C130.244 20.125 129.747 19.9219 129.274 19.6781C128.801 19.4342 128.41 19.101 128.1 18.6784C127.806 18.2558 127.66 17.6951 127.66 16.9961C127.66 16.2972 127.831 15.6959 128.173 15.192C128.516 14.6719 128.988 14.2736 129.592 13.9973C130.211 13.721 130.953 13.5829 131.818 13.5829ZM64.5935 13.5829C65.1805 13.5829 65.7105 13.6886 66.1833 13.8999C66.6562 14.0949 67.0964 14.4281 67.5041 14.8995L66.0611 16.3866C65.8165 16.1266 65.5474 15.9397 65.2539 15.8259C64.9604 15.7121 64.618 15.6552 64.2266 15.6552C63.4114 15.6552 62.7428 15.9153 62.221 16.4354C61.6992 16.9555 61.4383 17.7439 61.4383 18.8004V25.4076H59.2371V13.8267H61.4383V15.1728C61.5001 15.0787 61.5653 14.9876 61.6341 14.8995C62.3189 14.0218 63.3054 13.5829 64.5935 13.5829ZM99.9591 13.8267H102.821V15.8259H99.9591V25.4076H97.7578V15.8259H94.8962V13.8267H97.7578V8.9748H99.9591V13.8267ZM123.83 13.5829C124.417 13.5829 124.947 13.6885 125.419 13.8999C125.892 14.0949 126.332 14.4281 126.74 14.8995L125.297 16.3866C125.053 16.1266 124.783 15.9397 124.49 15.8259C124.196 15.7121 123.854 15.6552 123.463 15.6552C122.647 15.6552 121.979 15.9153 121.457 16.4354C120.935 16.9555 120.674 17.7439 120.674 18.8004V25.4076H118.473V13.8267H120.674V15.1728C120.736 15.0787 120.801 14.9876 120.87 14.8995C121.555 14.0218 122.541 13.5829 123.83 13.5829ZM87.0682 15.6552C86.3344 15.6552 85.6822 15.8259 85.1115 16.1673C84.5571 16.5086 84.1168 16.98 83.7907 17.5814C83.4809 18.1665 83.326 18.841 83.326 19.6049C83.326 20.3851 83.4809 21.0759 83.7907 21.6773C84.1168 22.2624 84.5653 22.7257 85.136 23.067C85.7067 23.4084 86.3589 23.5791 87.0926 23.5791C88.1851 23.5791 89.0656 23.2133 89.7342 22.4819C90.4027 21.7342 90.737 20.7833 90.737 19.6293C90.737 18.8329 90.582 18.1421 90.2722 17.557C89.9787 16.9556 89.5548 16.4923 89.0004 16.1673C88.446 15.8259 87.8019 15.6552 87.0682 15.6552ZM109.926 15.704C109.193 15.704 108.54 15.8747 107.97 16.216C107.399 16.5411 106.951 16.9962 106.624 17.5814C106.298 18.1665 106.135 18.833 106.135 19.5806C106.135 20.3445 106.298 21.0271 106.624 21.6285C106.951 22.2137 107.399 22.6769 107.97 23.0182C108.54 23.3596 109.193 23.5303 109.926 23.5303C110.66 23.5303 111.312 23.3596 111.883 23.0182C112.454 22.6769 112.902 22.2136 113.228 21.6285C113.554 21.0271 113.718 20.3445 113.718 19.5806C113.718 18.833 113.546 18.1665 113.204 17.5814C112.878 16.9962 112.429 16.5411 111.859 16.216C111.304 15.8747 110.66 15.704 109.926 15.704ZM73.8565 15.6064C73.1064 15.6064 72.446 15.769 71.8753 16.0941C71.3046 16.4192 70.8644 16.8743 70.5546 17.4594C70.3718 17.8046 70.243 18.1866 70.168 18.6053H77.2385C77.1784 18.126 77.054 17.7033 76.8649 17.3375C76.5877 16.7849 76.1964 16.3623 75.6909 16.0697C75.1854 15.7609 74.5739 15.6064 73.8565 15.6064Z" fill="white"/>
<path d="M16.0508 0C24.9154 0 32.1024 7.18616 32.1025 16.0508C32.1025 24.9155 24.9155 32.1016 16.0508 32.1016C7.18619 32.1014 0 24.9154 0 16.0508C0.000130909 7.18626 7.18627 0.000172045 16.0508 0ZM16.0508 2.33691C8.47669 2.33709 2.33704 8.47668 2.33691 16.0508C2.33691 23.625 8.47661 29.7655 16.0508 29.7656C23.6251 29.7656 29.7656 23.6251 29.7656 16.0508C29.7655 8.47658 23.625 2.33691 16.0508 2.33691ZM13.291 7.32812C15.1731 6.70593 17.2101 6.6653 19.1172 7.21191C21.0242 7.75852 22.7067 8.86559 23.9307 10.3779L22.04 11.8008C21.1231 10.6678 19.8622 9.8392 18.4336 9.42969C17.0049 9.02019 15.4793 9.0505 14.0693 9.5166C12.6594 9.98273 11.435 10.8616 10.5674 12.0303C9.69995 13.1988 9.23171 14.5991 9.22852 16.0361C9.22536 17.4733 9.68745 18.8757 10.5498 20.0479C11.4122 21.22 12.6323 22.1043 14.04 22.5762C15.4479 23.048 16.9738 23.0843 18.4043 22.6807C19.8348 22.277 21.0995 21.4535 22.0215 20.3242L23.9062 21.7549C22.6756 23.2623 20.9876 24.3616 19.0781 24.9004C17.1686 25.4392 15.1322 25.3906 13.2529 24.7607C11.3737 24.1309 9.74501 22.9514 8.59375 21.3867C7.44246 19.822 6.82587 17.9498 6.83008 16.0312C6.83433 14.1128 7.45913 12.2435 8.61719 10.6836C9.7753 9.12366 11.409 7.95033 13.291 7.32812Z" fill="white"/>
</svg>
