<svg width="245" height="50" viewBox="0 0 245 50" fill="none" xmlns="http://www.w3.org/2000/svg">
<g clip-path="url(#clip0_135_2418)">
<path d="M31.5546 27.4887C30.9915 31.0629 28.1459 33.2849 24.1226 33.2849C19.0441 33.2849 15.7633 29.4829 15.7633 23.6006C15.7633 18.0411 18.9944 14.5942 24.1972 14.5942C27.8759 14.5942 30.6327 16.6673 31.2189 19.8757L31.2899 20.2523H38.2015L38.134 19.7322C37.2317 12.7004 31.6914 7.97656 24.3517 7.97656H24.1279C19.9074 7.97656 16.0351 9.56013 13.2232 12.4349C10.3616 15.3617 8.81617 19.3969 8.8819 23.7835C8.82505 28.31 10.4042 32.4492 13.3227 35.4405C16.1399 38.3207 20.0051 39.9061 24.2114 39.9061H24.4281C31.5919 39.9061 37.3684 34.8613 38.4751 27.6375L38.5568 27.0995H31.6186L31.5546 27.4887Z" fill="white"/>
<path d="M74.5748 33.5702C74.5339 32.9012 74.3314 31.2657 74.1591 30.0569C73.7878 27.7058 72.9299 26.2908 71.3561 25.5071C73.8109 24.0509 75.1005 21.5365 75.1005 18.1721C75.1005 12.0082 71.2566 8.47168 64.5564 8.47168H50.4277V39.1889H57.1688V27.8744H63.0785C66.6649 28.0537 66.6755 28.1219 67.2795 31.8862L67.5033 33.6186C67.7928 36.0074 67.9865 37.5856 68.5868 38.9199L68.7076 39.1889H75.621V38.2563L75.5855 38.1684C74.8892 36.5454 74.7559 35.6146 74.5748 33.5702ZM57.167 15.0875H63.3965C65.5742 15.0875 68.1712 15.6686 68.1712 18.4375C68.1712 20.6847 66.6276 21.8235 63.583 21.8235H57.1688L57.167 15.0875Z" fill="white"/>
<path d="M84.7549 26.8557H100.221V20.5412H84.7549V15.0875H101.528V8.47168H78.0156V39.1889H101.715V32.573H84.7549V26.8557Z" fill="white"/>
<path d="M116.919 8.47168L103.631 39.1889H110.914L113.527 32.9658H127.417L130.025 39.1889H137.308L124.016 8.47168H116.919ZM116.307 26.35L120.5 16.585L124.632 26.35H116.307Z" fill="white"/>
<path d="M160.354 8.47168H131.351V15.1269H142.483V39.1889H149.222V15.1269H160.354V8.47168Z" fill="white"/>
<path d="M175.517 7.86792H175.071C170.7 7.86792 166.723 9.46942 163.881 12.3783C161.039 15.2872 159.511 19.299 159.559 23.6731C159.504 28.196 161.074 32.3208 163.98 35.2924C166.822 38.1959 170.76 39.7956 175.073 39.7956H175.514C179.722 39.7956 183.582 38.221 186.376 35.3624C189.291 32.3818 190.863 28.2319 190.817 23.6856C190.872 19.2613 189.333 15.2208 186.486 12.3084C183.685 9.43893 179.791 7.86792 175.526 7.86792H175.517ZM175.295 33.178C170.087 33.178 166.451 29.1949 166.451 23.4937C166.451 18.1925 170.087 14.4891 175.295 14.4891C180.372 14.4891 183.917 18.1925 183.917 23.4937C183.917 29.1967 180.365 33.178 175.295 33.178Z" fill="white"/>
<path d="M217.127 33.5702C217.087 32.912 216.888 31.3069 216.711 30.0569C216.34 27.7058 215.482 26.2908 213.908 25.5071C216.363 24.0509 217.651 21.5365 217.651 18.1721C217.651 12.0082 213.808 8.47168 207.106 8.47168H192.979V39.1889H199.719V27.8744H205.629C209.215 28.0537 209.227 28.1219 209.831 31.8862L210.055 33.6186C210.345 36.0074 210.538 37.5856 211.137 38.9199L211.259 39.1889H218.173V38.2563L218.137 38.1684C217.441 36.5436 217.308 35.6128 217.127 33.5702ZM199.719 15.0875H205.95C208.128 15.0875 210.723 15.6686 210.723 18.4375C210.723 20.6847 209.181 21.8235 206.138 21.8235H199.719V15.0875Z" fill="white"/>
<path d="M242.948 24.3073C241.757 23.0196 240.462 22.1893 238.966 21.766C237.545 21.3625 235.662 21.0128 233.181 20.69C231.504 20.4945 230.225 20.256 229.45 20.0946C226.964 19.5171 226.665 18.3012 226.665 17.4511C226.665 14.7772 229.404 14.223 231.701 14.223C234.852 14.223 236.719 15.6291 236.962 18.181L237.001 18.5971H244.297V18.1362C244.297 11.9956 239.28 7.87085 231.813 7.87085C224.477 7.87085 219.734 11.6639 219.734 17.5336C219.734 19.9063 220.317 21.7391 221.453 22.9676C222.503 24.2087 223.892 25.1096 225.447 25.5573C227.331 26.0645 229.249 26.4349 231.186 26.6656C232.991 26.9131 234.237 27.148 234.955 27.2968C237.385 27.8725 237.668 29.0615 237.668 29.9044C237.668 32.1193 235.602 33.4428 232.145 33.4428C228.55 33.4428 226.429 31.6781 226.326 28.6006L226.31 28.1577H218.876V28.6186C218.876 35.403 224.027 39.7896 231.996 39.7896C239.671 39.7896 244.631 35.8782 244.631 29.8237C244.631 27.4565 244.064 25.6039 242.938 24.3037" fill="white"/>
<path d="M23.7101 47.8835C10.6365 47.8835 0 37.1393 0 23.9382C0 10.737 10.6365 0 23.7101 0C36.7836 0 47.4272 10.7388 47.4272 23.9382C47.4272 37.1375 36.7854 47.8835 23.7101 47.8835ZM23.7101 4.6126C19.923 4.6126 16.2209 5.74647 13.0721 7.87082C9.92337 9.99517 7.46928 13.0146 6.02027 16.5472C4.57125 20.0797 4.19239 23.9668 4.93161 27.7168C5.67082 31.4668 7.4949 34.9112 10.1732 37.6145C12.8514 40.3178 16.2635 42.1584 19.978 42.9037C23.6924 43.649 27.5424 43.2654 31.0409 41.8015C34.5394 40.3375 37.5294 37.859 39.6326 34.6793C41.7358 31.4997 42.8579 27.7617 42.8568 23.9382C42.8512 18.8132 40.8321 13.8998 37.2425 10.276C33.653 6.65231 28.7862 4.61423 23.7101 4.60901" fill="white"/>
</g>
<defs>
<clipPath id="clip0_135_2418">
<rect width="244.641" height="49.0769" fill="white"/>
</clipPath>
</defs>
</svg>
