<svg width="16" height="24" viewBox="0 0 16 24" fill="none" xmlns="http://www.w3.org/2000/svg">
<path d="M8.00876 20.5185C6.36892 20.5185 4.9467 20.1688 3.74208 19.4694C2.54524 18.7699 1.6204 17.7712 0.967579 16.4734C0.322526 15.1677 0 13.6134 0 11.8103L0 11.7987C0 9.98785 0.326412 8.4374 0.979237 7.14729C1.63206 5.84941 2.5569 4.85463 3.75374 4.16295C4.95058 3.4635 6.36892 3.11377 8.00876 3.11377C9.36881 3.11377 10.5812 3.37801 11.6459 3.90648C12.7106 4.43496 13.5655 5.16162 14.2106 6.08645C14.8556 7.00351 15.2326 8.06047 15.3414 9.25731L15.353 9.36223L11.9257 9.36223L11.8791 9.16405C11.747 8.54232 11.5099 8.00218 11.168 7.54365C10.826 7.08512 10.3869 6.7315 9.85065 6.48281C9.32218 6.22634 8.70821 6.09811 8.00876 6.09811C7.10724 6.09811 6.32618 6.32738 5.66558 6.78591C5.00499 7.24444 4.49205 7.90115 4.12678 8.75604C3.76928 9.60315 3.59053 10.6135 3.59053 11.787V11.7987C3.59053 12.98 3.76928 14.0019 4.12678 14.8646C4.49205 15.7195 5.00499 16.3801 5.66558 16.8464C6.33395 17.3049 7.11501 17.5342 8.00876 17.5342C8.68489 17.5342 9.2872 17.4098 9.81568 17.1612C10.3519 16.9125 10.7988 16.555 11.1563 16.0887C11.5138 15.6146 11.7664 15.0434 11.914 14.375L11.9374 14.2584H15.3647L15.353 14.3866C15.2442 15.5757 14.8634 16.6327 14.2106 17.5575C13.5655 18.4823 12.7106 19.209 11.6459 19.7375C10.5812 20.2582 9.36881 20.5185 8.00876 20.5185Z" fill="#7553E2"/>
<rect x="6" width="4" height="5" fill="#7553E2"/>
<rect x="6" y="19" width="4" height="5" fill="#7553E2"/>
</svg>
