<svg width="56" height="58" viewBox="0 0 56 58" fill="none" xmlns="http://www.w3.org/2000/svg">
<rect opacity="0.5" width="56" height="58" rx="12" fill="#3F434E"/>
<path d="M28.0091 38.6402C26.1912 38.6402 24.6145 38.2525 23.2791 37.477C21.9523 36.7016 20.927 35.5945 20.2033 34.1557C19.4882 32.7082 19.1306 30.9851 19.1306 28.9862V28.9733C19.1306 26.9658 19.4925 25.247 20.2162 23.8168C20.9399 22.378 21.9652 21.2751 23.292 20.5083C24.6188 19.7329 26.1912 19.3452 28.0091 19.3452C29.5169 19.3452 30.8609 19.6381 32.0413 20.224C33.2217 20.8099 34.1694 21.6155 34.8845 22.6407C35.5996 23.6574 36.0175 24.8291 36.1381 26.156L36.151 26.2723L32.3515 26.2723L32.2998 26.0526C32.1533 25.3633 31.8905 24.7645 31.5114 24.2562C31.1323 23.7479 30.6455 23.3558 30.0511 23.0801C29.4652 22.7958 28.7845 22.6537 28.0091 22.6537C27.0097 22.6537 26.1438 22.9078 25.4115 23.4162C24.6792 23.9245 24.1105 24.6525 23.7056 25.6002C23.3092 26.5394 23.1111 27.6594 23.1111 28.9604V28.9733C23.1111 30.2829 23.3092 31.4159 23.7056 32.3722C24.1105 33.3199 24.6792 34.0523 25.4115 34.5692C26.1524 35.0776 27.0183 35.3317 28.0091 35.3317C28.7587 35.3317 29.4264 35.1939 30.0123 34.9182C30.6068 34.6425 31.1022 34.2461 31.4985 33.7292C31.8948 33.2036 32.1748 32.5704 32.3385 31.8294L32.3644 31.7002L36.1639 31.7002L36.151 31.8423C36.0304 33.1606 35.6082 34.3323 34.8845 35.3576C34.1694 36.3828 33.2217 37.1884 32.0413 37.7743C30.8609 38.3515 29.5169 38.6402 28.0091 38.6402Z" fill="#9776FF"/>
<rect x="26.2739" y="17.0016" width="3.27892" height="5.63797" fill="#9776FF"/>
<rect x="26.2739" y="35.363" width="3.27892" height="5.63797" fill="#9776FF"/>
</svg>
