<svg width="170" height="151" viewBox="0 0 170 151" fill="none" xmlns="http://www.w3.org/2000/svg">
<g filter="url(#filter0_d_1710_6275)">
<rect x="16.9883" y="9.42529" width="120.456" height="101.632" rx="9" fill="url(#paint0_linear_1710_6275)"/>
<rect x="17.4883" y="9.92529" width="119.456" height="100.632" rx="8.5" stroke="url(#paint1_linear_1710_6275)"/>
</g>
<path d="M94.2337 59.091C94.356 59.3762 94.4171 59.6818 94.4171 60.0077C94.4171 60.3337 94.356 60.6392 94.2337 60.9244C92.5226 64.1838 90.1188 66.8117 87.0224 68.808C83.926 70.7637 80.524 71.7415 76.8164 71.7415C74.3719 71.7415 72.0089 71.2933 69.7273 70.397C67.4865 69.4599 65.4901 68.1969 63.7382 66.608C61.9863 64.9783 60.5399 63.0838 59.3992 60.9244C59.2769 60.6392 59.2158 60.3337 59.2158 60.0077C59.2158 59.6818 59.2769 59.3762 59.3992 59.091C61.1103 55.8317 63.5141 53.2242 66.6105 51.2685C69.7069 49.2722 73.1089 48.274 76.8164 48.274C80.524 48.274 83.926 49.2722 87.0224 51.2685C90.1188 53.2242 92.5226 55.8317 94.2337 59.091ZM76.8164 68.808C79.261 68.808 81.3388 67.9525 83.05 66.2413C84.7612 64.5301 85.6168 62.4523 85.6168 60.0077C85.6168 57.5632 84.7612 55.4854 83.05 53.7742C81.3388 52.063 79.261 51.2074 76.8164 51.2074C74.3719 51.2074 72.2941 52.063 70.5829 53.7742C68.8717 55.4854 68.0161 57.5632 68.0161 60.0077C68.0161 62.4523 68.8717 64.5301 70.5829 66.2413C72.2941 67.9525 74.3719 68.808 76.8164 68.808ZM76.8164 54.1409C78.4461 54.1409 79.8314 54.7113 80.9721 55.852C82.1129 56.9928 82.6833 58.378 82.6833 60.0077C82.6833 61.5967 82.1129 62.9819 80.9721 64.1634C79.8314 65.3042 78.4461 65.8746 76.8164 65.8746C75.2275 65.8746 73.8423 65.3042 72.6607 64.1634C71.52 62.9819 70.9496 61.5967 70.9496 60.0077C70.9496 59.4781 71.0311 58.9688 71.194 58.4799C71.6829 58.8466 72.2533 59.0299 72.9052 59.0299C73.72 59.0299 74.4127 58.7447 74.983 58.1743C75.5534 57.6039 75.8386 56.9113 75.8386 56.0965C75.8386 55.4446 75.6553 54.8742 75.2886 54.3853C75.7775 54.2223 76.2868 54.1409 76.8164 54.1409Z" fill="#C2AEFF"/>
<defs>
<filter id="filter0_d_1710_6275" x="0.988281" y="0.425293" width="168.456" height="149.632" filterUnits="userSpaceOnUse" color-interpolation-filters="sRGB">
<feFlood flood-opacity="0" result="BackgroundImageFix"/>
<feColorMatrix in="SourceAlpha" type="matrix" values="0 0 0 0 0 0 0 0 0 0 0 0 0 0 0 0 0 0 127 0" result="hardAlpha"/>
<feOffset dx="8" dy="15"/>
<feGaussianBlur stdDeviation="12"/>
<feComposite in2="hardAlpha" operator="out"/>
<feColorMatrix type="matrix" values="0 0 0 0 0 0 0 0 0 0 0 0 0 0 0 0 0 0 0.25 0"/>
<feBlend mode="normal" in2="BackgroundImageFix" result="effect1_dropShadow_1710_6275"/>
<feBlend mode="normal" in="SourceGraphic" in2="effect1_dropShadow_1710_6275" result="shape"/>
</filter>
<linearGradient id="paint0_linear_1710_6275" x1="32.658" y1="24.086" x2="91.6192" y2="111.058" gradientUnits="userSpaceOnUse">
<stop stop-color="#413158"/>
<stop offset="1" stop-color="#30273E"/>
</linearGradient>
<linearGradient id="paint1_linear_1710_6275" x1="56.5602" y1="24.3777" x2="91.4867" y2="91.7796" gradientUnits="userSpaceOnUse">
<stop stop-color="white" stop-opacity="0.17"/>
<stop offset="1" stop-color="white" stop-opacity="0"/>
</linearGradient>
</defs>
</svg>
