<svg width="40" height="41" viewBox="0 0 40 41" fill="none" xmlns="http://www.w3.org/2000/svg">
<ellipse cx="20" cy="20.4319" rx="20" ry="20.1183" fill="white"/>
<path fill-rule="evenodd" clip-rule="evenodd" d="M21.9555 23.6216L21.5348 24.1186L25.4352 27.2918C25.2328 28.0771 24.4956 28.5066 23.8026 27.9429L19.7443 24.6423L19.3245 25.1369L23.2482 28.33C23.0588 29.1226 22.3083 29.5668 21.6123 29.0004L17.5545 25.7003L17.1342 26.1946L21.2563 29.5494C21.0687 30.3349 20.319 30.8192 19.6263 30.2285L9 21.1756L12.249 16.6379L13.8113 17.3263L18.4941 17.1542L19.1115 17.8121L16.9634 20.0708C15.6568 21.4443 17.0275 22.2268 18.458 21.8975C19.3958 21.6819 20.2107 21.1865 20.9545 20.6026C23.0099 22.1229 25.0889 23.6093 27.1285 25.1502C28.4007 26.1116 27.103 27.809 26.0146 26.9235L21.9555 23.6216ZM20.9232 19.776C20.1305 20.4532 19.2753 21.0874 18.2197 21.2935C17.5709 21.4203 16.6383 21.3561 17.4434 20.5093L20.5842 17.2068L26.2351 17.2413L27.5864 16.4081L31 20.9203L27.2529 24.436L20.9232 19.776Z" fill="black"/>
</svg>
