<svg width="193" height="171" viewBox="0 0 193 171" fill="none" xmlns="http://www.w3.org/2000/svg">
<g filter="url(#filter0_d_1684_7062)">
<rect x="17" y="10" width="142.767" height="120.457" rx="9" fill="url(#paint0_linear_1684_7062)" shape-rendering="crispEdges"/>
<rect x="16.5" y="9.5" width="143.767" height="121.457" rx="9.5" stroke="url(#paint1_linear_1684_7062)" shape-rendering="crispEdges"/>
</g>
<g clip-path="url(#clip0_1684_7062)">
<path fill-rule="evenodd" clip-rule="evenodd" d="M151.308 55.2443C151.308 56.5588 150.243 57.6243 148.928 57.6243H136.614C135.299 57.6243 134.234 56.5588 134.234 55.2443V43.4553C134.234 42.1408 135.299 41.0752 136.614 41.0752H148.928C150.243 41.0752 151.308 42.1408 151.308 43.4553V55.2443Z" fill="#A581EA" stroke="#C2AEFF" stroke-width="2"/>
<path d="M144.224 48.8132C143.782 49.2558 143.246 49.4771 142.614 49.4771C141.982 49.4771 141.439 49.2558 140.986 48.8132C140.545 48.3586 140.324 47.8144 140.324 47.1804C140.324 46.5464 140.545 46.0081 140.986 45.5655C141.439 45.1109 141.982 44.8836 142.614 44.8836C143.246 44.8836 143.782 45.1109 144.224 45.5655C144.677 46.0081 144.903 46.5464 144.903 47.1804C144.903 47.8144 144.677 48.3586 144.224 48.8132ZM144.224 50.0513C144.879 50.0513 145.44 50.2905 145.905 50.769C146.382 51.2355 146.62 51.7978 146.62 52.4557V53.2093C146.62 53.4485 146.537 53.6519 146.37 53.8194C146.203 53.9868 146 54.0706 145.762 54.0706H139.466C139.227 54.0706 139.025 53.9868 138.858 53.8194C138.691 53.6519 138.607 53.4485 138.607 53.2093V52.4557C138.607 51.7978 138.84 51.2355 139.305 50.769C139.782 50.2905 140.348 50.0513 141.004 50.0513H141.308C141.725 50.2427 142.161 50.3384 142.614 50.3384C143.067 50.3384 143.502 50.2427 143.92 50.0513H144.224Z" fill="#302146"/>
<path fill-rule="evenodd" clip-rule="evenodd" d="M151.308 75.7934C151.308 77.1079 150.243 78.1735 148.928 78.1735H136.614C135.299 78.1735 134.234 77.1079 134.234 75.7934V64.0044C134.234 62.6899 135.299 61.6244 136.614 61.6244H148.928C150.243 61.6244 151.308 62.6899 151.308 64.0044V75.7934Z" fill="#64587A"/>
<path d="M144.354 69.3624C143.913 69.805 143.376 70.0263 142.744 70.0263C142.112 70.0263 141.57 69.805 141.116 69.3624C140.675 68.9078 140.455 68.3635 140.455 67.7295C140.455 67.0955 140.675 66.5572 141.116 66.1146C141.57 65.6601 142.112 65.4328 142.744 65.4328C143.376 65.4328 143.913 65.6601 144.354 66.1146C144.807 66.5572 145.034 67.0955 145.034 67.7295C145.034 68.3635 144.807 68.9078 144.354 69.3624ZM144.354 70.6004C145.01 70.6004 145.57 70.8397 146.035 71.3182C146.512 71.7847 146.751 72.3469 146.751 73.0048V73.7585C146.751 73.9977 146.667 74.2011 146.5 74.3685C146.333 74.536 146.131 74.6197 145.892 74.6197H139.596C139.358 74.6197 139.155 74.536 138.988 74.3685C138.821 74.2011 138.738 73.9977 138.738 73.7585V73.0048C138.738 72.3469 138.97 71.7847 139.435 71.3182C139.912 70.8397 140.479 70.6004 141.134 70.6004H141.438C141.856 70.7918 142.291 70.8875 142.744 70.8875C143.197 70.8875 143.633 70.7918 144.05 70.6004H144.354Z" fill="#302146"/>
<path fill-rule="evenodd" clip-rule="evenodd" d="M151.308 96.3426C151.308 97.6571 150.243 98.7227 148.928 98.7227H136.614C135.299 98.7227 134.234 97.6571 134.234 96.3426V84.5536C134.234 83.2391 135.299 82.1735 136.614 82.1735H148.928C150.243 82.1735 151.308 83.2391 151.308 84.5536V96.3426Z" fill="#64587A"/>
<path d="M144.354 89.9115C143.913 90.3541 143.376 90.5754 142.744 90.5754C142.112 90.5754 141.57 90.3541 141.116 89.9115C140.675 89.457 140.455 88.9127 140.455 88.2787C140.455 87.6447 140.675 87.1064 141.116 86.6638C141.57 86.2092 142.112 85.9819 142.744 85.9819C143.376 85.9819 143.913 86.2092 144.354 86.6638C144.807 87.1064 145.034 87.6447 145.034 88.2787C145.034 88.9127 144.807 89.457 144.354 89.9115ZM144.354 91.1496C145.01 91.1496 145.57 91.3888 146.035 91.8673C146.512 92.3339 146.751 92.8961 146.751 93.554V94.3076C146.751 94.5469 146.667 94.7502 146.5 94.9177C146.333 95.0852 146.131 95.1689 145.892 95.1689H139.596C139.358 95.1689 139.155 95.0852 138.988 94.9177C138.821 94.7502 138.738 94.5469 138.738 94.3076V93.554C138.738 92.8961 138.97 92.3339 139.435 91.8673C139.912 91.3888 140.479 91.1496 141.134 91.1496H141.438C141.856 91.341 142.291 91.4367 142.744 91.4367C143.197 91.4367 143.633 91.341 144.05 91.1496H144.354Z" fill="#302146"/>
<path fill-rule="evenodd" clip-rule="evenodd" d="M151.308 116.892C151.308 118.206 150.243 119.272 148.928 119.272H136.614C135.299 119.272 134.234 118.206 134.234 116.892V105.103C134.234 103.788 135.299 102.723 136.614 102.723H148.928C150.243 102.723 151.308 103.788 151.308 105.103V116.892Z" fill="#64587A"/>
<path d="M144.354 110.461C143.913 110.903 143.376 111.125 142.744 111.125C142.112 111.125 141.57 110.903 141.116 110.461C140.675 110.006 140.455 109.462 140.455 108.828C140.455 108.194 140.675 107.656 141.116 107.213C141.57 106.758 142.112 106.531 142.744 106.531C143.376 106.531 143.913 106.758 144.354 107.213C144.807 107.656 145.034 108.194 145.034 108.828C145.034 109.462 144.807 110.006 144.354 110.461ZM144.354 111.699C145.01 111.699 145.57 111.938 146.035 112.416C146.512 112.883 146.751 113.445 146.751 114.103V114.857C146.751 115.096 146.667 115.299 146.5 115.467C146.333 115.634 146.131 115.718 145.892 115.718H139.596C139.358 115.718 139.155 115.634 138.988 115.467C138.821 115.299 138.738 115.096 138.738 114.857V114.103C138.738 113.445 138.97 112.883 139.435 112.416C139.912 111.938 140.479 111.699 141.134 111.699H141.438C141.856 111.89 142.291 111.986 142.744 111.986C143.197 111.986 143.633 111.89 144.05 111.699H144.354Z" fill="#302146"/>
</g>
<path fill-rule="evenodd" clip-rule="evenodd" d="M128.25 105.28C128.25 108.594 125.564 111.28 122.25 111.28H32.7271C29.4133 111.28 26.7271 108.594 26.7271 105.28V46.5576C26.7271 43.2439 29.4133 40.5576 32.7271 40.5576H122.25C125.564 40.5576 128.25 43.2439 128.25 46.5576V105.28Z" fill="#1D122F"/>
<path d="M86.7928 74.3356C84.2427 76.8938 81.1413 78.1729 77.4885 78.1729C73.8357 78.1729 70.6998 76.8938 68.0808 74.3356C65.5307 71.7084 64.2557 68.5625 64.2557 64.8982C64.2557 61.2338 65.5307 58.1226 68.0808 55.5644C70.6998 52.9372 73.8357 51.6235 77.4885 51.6235C81.1413 51.6235 84.2427 52.9372 86.7928 55.5644C89.4118 58.1226 90.7213 61.2338 90.7213 64.8982C90.7213 68.5625 89.4118 71.7084 86.7928 74.3356ZM86.7928 81.4915C90.5835 81.4915 93.8228 82.8743 96.5107 85.6399C99.2675 88.3363 100.646 91.5858 100.646 95.3884V99.7442C100.646 101.127 100.163 102.302 99.1986 103.27C98.2337 104.238 97.062 104.722 95.6836 104.722H59.2934C57.9149 104.722 56.7433 104.238 55.7784 103.27C54.8135 102.302 54.3311 101.127 54.3311 99.7442V95.3884C54.3311 91.5858 55.675 88.3363 58.3629 85.6399C61.1198 82.8743 64.3935 81.4915 68.1842 81.4915H69.9416C72.3539 82.5977 74.8695 83.1509 77.4885 83.1509C80.1075 83.1509 82.6231 82.5977 85.0353 81.4915H86.7928Z" fill="#C2AEFF"/>
<path d="M84.1157 66.9145C84.1157 70.6482 81.0889 73.675 77.3552 73.675C73.6215 73.675 70.5947 70.6482 70.5947 66.9145H84.1157Z" fill="#302146"/>
<path d="M17 19C17 14.0294 21.0294 10 26 10H150.767C155.738 10 159.767 14.0294 159.767 19V26.8428H17V19Z" fill="#100B17"/>
<circle cx="26.4289" cy="18.4216" r="3.1579" fill="#36343A"/>
<circle cx="38.7448" cy="18.4216" r="3.1579" fill="#36343A"/>
<circle cx="51.0605" cy="18.4216" r="3.1579" fill="#36343A"/>
<g filter="url(#filter1_d_1684_7062)">
<rect x="54.3311" y="100.661" width="20.7908" height="20.6722" rx="10.3361" fill="#7661B5"/>
</g>
<path d="M66.3353 112.605C65.8937 113.047 65.3575 113.268 64.7266 113.268C64.0958 113.268 63.5596 113.047 63.118 112.605C62.6764 112.164 62.4556 111.627 62.4556 110.996V107.211C62.4556 106.58 62.6764 106.044 63.118 105.603C63.5596 105.161 64.0958 104.94 64.7266 104.94C65.3575 104.94 65.8937 105.161 66.3353 105.603C66.7769 106.044 66.9977 106.58 66.9977 107.211V110.996C66.9977 111.627 66.7769 112.164 66.3353 112.605ZM68.5118 109.482C68.6222 109.482 68.7089 109.522 68.772 109.601C68.8509 109.664 68.8903 109.751 68.8903 109.861V110.996C68.8903 112.037 68.5433 112.952 67.8494 113.741C67.1712 114.514 66.3196 114.971 65.2944 115.113V115.917H66.6192C66.7296 115.917 66.8164 115.949 66.8794 116.012C66.9583 116.091 66.9977 116.185 66.9977 116.296V116.674C66.9977 116.785 66.9583 116.871 66.8794 116.934C66.8164 117.013 66.7296 117.053 66.6192 117.053H62.8341C62.7237 117.053 62.629 117.013 62.5502 116.934C62.4871 116.871 62.4556 116.785 62.4556 116.674V116.296C62.4556 116.185 62.4871 116.091 62.5502 116.012C62.629 115.949 62.7237 115.917 62.8341 115.917H64.1589V115.113C63.1337 114.971 62.2742 114.49 61.5802 113.67C60.9021 112.834 60.563 111.88 60.563 110.807V109.861C60.563 109.751 60.5945 109.664 60.6576 109.601C60.7365 109.522 60.8311 109.482 60.9415 109.482H61.32C61.4304 109.482 61.5172 109.522 61.5802 109.601C61.6591 109.664 61.6985 109.751 61.6985 109.861V110.855C61.6985 111.659 61.9588 112.369 62.4792 112.984C62.9997 113.599 63.6463 113.938 64.4191 114.001C65.3181 114.096 66.0988 113.843 66.7612 113.244C67.4236 112.629 67.7548 111.88 67.7548 110.996V109.861C67.7548 109.751 67.7863 109.664 67.8494 109.601C67.9282 109.522 68.0229 109.482 68.1333 109.482H68.5118Z" fill="#31115A"/>
<g filter="url(#filter2_d_1684_7062)">
<rect x="80.926" y="100.661" width="20.7908" height="20.6722" rx="10.3361" fill="#7661B5"/>
</g>
<path d="M92.258 107.25C92.5182 107.25 92.7394 107.341 92.9215 107.523C93.1037 107.705 93.1948 107.926 93.1948 108.187V113.807C93.1948 114.067 93.1037 114.289 92.9215 114.471C92.7394 114.653 92.5182 114.744 92.258 114.744H86.6374C86.3772 114.744 86.1561 114.653 85.9739 114.471C85.7918 114.289 85.7007 114.067 85.7007 113.807V108.187C85.7007 107.926 85.7918 107.705 85.9739 107.523C86.1561 107.341 86.3772 107.25 86.6374 107.25H92.258ZM95.966 107.992C96.1742 107.848 96.3888 107.835 96.61 107.953C96.8312 108.057 96.9418 108.239 96.9418 108.499V113.495C96.9418 113.755 96.8247 113.944 96.5905 114.061C96.3693 114.165 96.1612 114.146 95.966 114.002L93.8193 112.539V109.455L95.966 107.992Z" fill="#31115A"/>
<defs>
<filter id="filter0_d_1684_7062" x="0" y="0" width="192.767" height="170.457" filterUnits="userSpaceOnUse" color-interpolation-filters="sRGB">
<feFlood flood-opacity="0" result="BackgroundImageFix"/>
<feColorMatrix in="SourceAlpha" type="matrix" values="0 0 0 0 0 0 0 0 0 0 0 0 0 0 0 0 0 0 127 0" result="hardAlpha"/>
<feOffset dx="8" dy="15"/>
<feGaussianBlur stdDeviation="12"/>
<feComposite in2="hardAlpha" operator="out"/>
<feColorMatrix type="matrix" values="0 0 0 0 0 0 0 0 0 0 0 0 0 0 0 0 0 0 0.25 0"/>
<feBlend mode="normal" in2="BackgroundImageFix" result="effect1_dropShadow_1684_7062"/>
<feBlend mode="normal" in="SourceGraphic" in2="effect1_dropShadow_1684_7062" result="shape"/>
</filter>
<filter id="filter1_d_1684_7062" x="46.3311" y="92.6611" width="36.7908" height="36.6722" filterUnits="userSpaceOnUse" color-interpolation-filters="sRGB">
<feFlood flood-opacity="0" result="BackgroundImageFix"/>
<feColorMatrix in="SourceAlpha" type="matrix" values="0 0 0 0 0 0 0 0 0 0 0 0 0 0 0 0 0 0 127 0" result="hardAlpha"/>
<feOffset/>
<feGaussianBlur stdDeviation="4"/>
<feComposite in2="hardAlpha" operator="out"/>
<feColorMatrix type="matrix" values="0 0 0 0 0.430024 0 0 0 0 0.229762 0 0 0 0 1 0 0 0 0.4 0"/>
<feBlend mode="normal" in2="BackgroundImageFix" result="effect1_dropShadow_1684_7062"/>
<feBlend mode="normal" in="SourceGraphic" in2="effect1_dropShadow_1684_7062" result="shape"/>
</filter>
<filter id="filter2_d_1684_7062" x="72.926" y="92.6611" width="36.7908" height="36.6722" filterUnits="userSpaceOnUse" color-interpolation-filters="sRGB">
<feFlood flood-opacity="0" result="BackgroundImageFix"/>
<feColorMatrix in="SourceAlpha" type="matrix" values="0 0 0 0 0 0 0 0 0 0 0 0 0 0 0 0 0 0 127 0" result="hardAlpha"/>
<feOffset/>
<feGaussianBlur stdDeviation="4"/>
<feComposite in2="hardAlpha" operator="out"/>
<feColorMatrix type="matrix" values="0 0 0 0 0.430024 0 0 0 0 0.229762 0 0 0 0 1 0 0 0 0.4 0"/>
<feBlend mode="normal" in2="BackgroundImageFix" result="effect1_dropShadow_1684_7062"/>
<feBlend mode="normal" in="SourceGraphic" in2="effect1_dropShadow_1684_7062" result="shape"/>
</filter>
<linearGradient id="paint0_linear_1684_7062" x1="-34.8581" y1="-10.15" x2="64.4417" y2="150.23" gradientUnits="userSpaceOnUse">
<stop stop-color="#3A3A3A"/>
<stop offset="1" stop-color="#2F2146"/>
</linearGradient>
<linearGradient id="paint1_linear_1684_7062" x1="21.7236" y1="-0.597854" x2="88.3835" y2="123.474" gradientUnits="userSpaceOnUse">
<stop stop-color="white" stop-opacity="0.17"/>
<stop offset="1" stop-color="white" stop-opacity="0"/>
</linearGradient>
<clipPath id="clip0_1684_7062">
<rect width="21" height="71" fill="white" transform="translate(132.271 39.0752)"/>
</clipPath>
</defs>
</svg>
