<svg width="354" height="76" viewBox="0 0 354 76" fill="none" xmlns="http://www.w3.org/2000/svg">
<path d="M22.1309 61.9678C18.0455 61.9678 14.5022 61.0965 11.5011 59.3539C8.51932 57.6113 6.21523 55.1233 4.58882 51.8898C2.98176 48.637 2.17824 44.7646 2.17824 40.2725V40.2435C2.17824 35.7321 2.99144 31.8694 4.61786 28.6553C6.24428 25.4218 8.54837 22.9435 11.5301 21.2202C14.5119 19.4777 18.0455 18.6064 22.1309 18.6064C25.5192 18.6064 28.5397 19.2647 31.1923 20.5813C33.8449 21.8979 35.9748 23.7083 37.5818 26.0124C39.1889 28.2971 40.1279 30.9303 40.399 33.9121L40.4281 34.1735H31.8894L31.7732 33.6798C31.444 32.1308 30.8535 30.7851 30.0016 29.6428C29.1496 28.5004 28.0557 27.6194 26.7197 26.9998C25.4031 26.3609 23.8735 26.0414 22.1309 26.0414C19.8849 26.0414 17.939 26.6126 16.2932 27.755C14.6474 28.8973 13.3695 30.5334 12.4595 32.6632C11.5689 34.7737 11.1235 37.2908 11.1235 40.2145V40.2435C11.1235 43.1865 11.5689 45.7327 12.4595 47.8819C13.3695 50.0117 14.6474 51.6575 16.2932 52.8192C17.9583 53.9616 19.9042 54.5327 22.1309 54.5327C23.8154 54.5327 25.3159 54.2229 26.6326 53.6034C27.9685 52.9838 29.0819 52.0931 29.9725 50.9314C30.8632 49.7503 31.4924 48.3272 31.8603 46.662L31.9184 46.3716H40.4571L40.4281 46.6911C40.157 49.6535 39.2082 52.2867 37.5818 54.5908C35.9748 56.8949 33.8449 58.7053 31.1923 60.0219C28.5397 61.3191 25.5192 61.9678 22.1309 61.9678ZM45.1621 61.2417V30.1074H53.6427V35.5385H53.8169C54.2816 33.6217 55.1239 32.1308 56.3437 31.0659C57.5635 30.001 59.0834 29.4685 60.9035 29.4685C61.3682 29.4685 61.8135 29.4975 62.2395 29.5556C62.6654 29.6137 63.0333 29.6912 63.3431 29.788V37.2521C62.9946 37.1165 62.5492 37.01 62.0071 36.9326C61.465 36.8358 60.8841 36.7874 60.2645 36.7874C58.8705 36.7874 57.6797 37.0584 56.6922 37.6006C55.7047 38.1427 54.9496 38.9366 54.4268 39.9821C53.9041 41.0277 53.6427 42.3056 53.6427 43.8158V61.2417H45.1621ZM80.0139 61.8806C76.8385 61.8806 74.1084 61.232 71.8237 59.9348C69.539 58.6181 67.777 56.7497 66.5378 54.3294C65.318 51.9092 64.7081 49.0436 64.7081 45.7327V45.7036C64.7081 42.3927 65.318 39.5271 66.5378 37.1068C67.777 34.6672 69.5099 32.7891 71.7366 31.4725C73.9826 30.1365 76.6255 29.4685 79.6653 29.4685C82.7052 29.4685 85.3288 30.1171 87.536 31.4144C89.7627 32.6923 91.4762 34.5026 92.6767 36.8455C93.8965 39.1883 94.5064 41.928 94.5064 45.0647V47.6786H68.8613L68.8613 42.3346H90.4984L86.4614 47.33L86.4614 44.0772C86.4614 42.2572 86.1807 40.7372 85.6192 39.5174C85.0577 38.2783 84.2735 37.3489 83.2667 36.7293C82.2792 36.1097 81.1272 35.7999 79.8106 35.7999C78.4939 35.7999 77.3225 36.1194 76.2963 36.7583C75.2895 37.3973 74.4957 38.3363 73.9148 39.5755C73.3533 40.7953 73.0725 42.2959 73.0725 44.0772L73.0725 47.3591C73.0725 49.0823 73.3533 50.5538 73.9148 51.7736C74.4957 52.9934 75.3186 53.9325 76.3835 54.5908C77.4484 55.2298 78.7166 55.5492 80.1881 55.5492C81.3498 55.5492 82.3567 55.3653 83.2086 54.9974C84.0605 54.6295 84.7576 54.1649 85.2997 53.6034C85.8419 53.0419 86.2097 52.4707 86.4034 51.8898L86.4614 51.7155H94.245L94.1579 52.035C93.9255 53.1774 93.4705 54.3294 92.7928 55.4912C92.1152 56.6529 91.1955 57.7178 90.0337 58.6859C88.8914 59.654 87.4876 60.4285 85.8225 61.0094C84.1767 61.5902 82.2405 61.8806 80.0139 61.8806ZM108.157 61.7354C106.085 61.7354 104.265 61.3385 102.697 60.5447C101.128 59.7315 99.8987 58.6181 99.0081 57.2047C98.1368 55.7719 97.7011 54.1455 97.7011 52.3255V52.2674C97.7011 49.4405 98.7564 47.2235 100.867 45.6165C102.977 43.9901 105.959 43.051 109.812 42.7993L121.952 42.0442L121.952 47.33L111.09 48.0271C109.464 48.1239 108.224 48.5111 107.373 49.1888C106.521 49.8471 106.095 50.7281 106.095 51.8317V51.8898C106.095 53.0322 106.53 53.9325 107.402 54.5908C108.273 55.2298 109.444 55.5492 110.916 55.5492C112.174 55.5492 113.297 55.3072 114.285 54.8232C115.292 54.3197 116.076 53.6421 116.637 52.7901C117.218 51.9189 117.509 50.9411 117.509 49.8568L117.509 40.4178C117.509 39.0431 117.073 37.9588 116.202 37.1649C115.33 36.3517 114.062 35.9451 112.397 35.9451C110.809 35.9451 109.551 36.2743 108.621 36.9326C107.692 37.5909 107.121 38.4235 106.908 39.4303L106.85 39.6917H99.0952L99.1242 39.3432C99.2791 37.4263 99.9084 35.7225 101.012 34.2316C102.135 32.7407 103.684 31.579 105.659 30.7464C107.653 29.8945 110.015 29.4685 112.745 29.4685C115.437 29.4685 117.77 29.9041 119.745 30.7754C121.72 31.6274 123.249 32.8375 124.334 34.4058C125.437 35.9742 125.989 37.8039 125.989 39.895L125.989 61.2417H117.509V56.5948H117.334C116.753 57.6597 115.998 58.5794 115.069 59.3539C114.159 60.109 113.123 60.6996 111.961 61.1255C110.8 61.5321 109.531 61.7354 108.157 61.7354ZM143.851 61.8806C140.404 61.8806 137.848 61.1546 136.183 59.7024C134.518 58.2503 133.686 55.859 133.686 52.5288V36.4969H129.358V30.1074H133.686V22.4981H142.253V30.1074L147.946 30.1074V36.4969H142.253V51.5994C142.253 53.0515 142.573 54.068 143.212 54.6489C143.87 55.2104 144.838 55.4912 146.116 55.4912C146.503 55.4912 146.842 55.4815 147.133 55.4621C147.423 55.4234 147.694 55.3847 147.946 55.3459V61.5612C147.481 61.6386 146.9 61.7064 146.203 61.7645C145.526 61.8419 144.741 61.8806 143.851 61.8806ZM166.504 61.8806C163.348 61.8806 160.618 61.232 158.314 59.9348C156.01 58.6375 154.229 56.7787 152.97 54.3585C151.712 51.9382 151.082 49.0436 151.082 45.6746V45.6165C151.082 42.2668 151.721 39.3916 152.999 36.9907C154.277 34.5704 156.068 32.7117 158.372 31.4144C160.676 30.1171 163.377 29.4685 166.475 29.4685C169.593 29.4685 172.303 30.1171 174.607 31.4144C176.931 32.6923 178.732 34.5414 180.009 36.9616C181.287 39.3625 181.926 42.2475 181.926 45.6165V45.6746C181.926 49.0629 181.287 51.9673 180.009 54.3875C178.751 56.8078 176.97 58.6665 174.665 59.9638C172.361 61.2417 169.641 61.8806 166.504 61.8806ZM166.533 55.2298C167.908 55.2298 169.099 54.8619 170.106 54.1261C171.132 53.371 171.916 52.2867 172.458 50.8733C173.02 49.4405 173.3 47.7076 173.3 45.6746V45.6165C173.3 43.6028 173.02 41.8893 172.458 40.4759C171.897 39.0624 171.103 37.9878 170.077 37.2521C169.05 36.4969 167.85 36.1194 166.475 36.1194C165.12 36.1194 163.929 36.4969 162.903 37.2521C161.896 37.9878 161.112 39.0624 160.551 40.4759C159.989 41.8893 159.708 43.6028 159.708 45.6165V45.6746C159.708 47.7076 159.979 49.4405 160.521 50.8733C161.083 52.2867 161.877 53.371 162.903 54.1261C163.929 54.8619 165.139 55.2298 166.533 55.2298ZM186.312 61.2417V30.1074L194.792 30.1074V35.5385H194.967C195.431 33.6217 196.274 32.1308 197.493 31.0659C198.713 30.001 200.233 29.4685 202.053 29.4685C202.518 29.4685 202.963 29.4975 203.389 29.5556C203.815 29.6137 204.183 29.6912 204.493 29.788V37.2521C204.144 37.1165 203.699 37.01 203.157 36.9326C202.615 36.8358 202.034 36.7874 201.414 36.7874C200.02 36.7874 198.829 37.0584 197.842 37.6006C196.854 38.1427 196.099 38.9366 195.577 39.9821C195.054 41.0277 194.792 42.3056 194.792 43.8158V61.2417H186.312ZM220.786 61.8806C217.92 61.8806 215.481 61.4644 213.467 60.6318C211.453 59.7992 209.875 58.6472 208.733 57.1757C207.61 55.6848 206.932 53.9616 206.7 52.006L206.671 51.7446H214.948L215.006 52.006C215.277 53.2258 215.887 54.1745 216.836 54.8522C217.785 55.5299 219.101 55.8687 220.786 55.8687C221.87 55.8687 222.79 55.7429 223.545 55.4912C224.3 55.2201 224.881 54.8425 225.288 54.3585C225.714 53.8744 225.927 53.2936 225.927 52.6159V52.5868C225.927 51.7543 225.627 51.0863 225.026 50.5829C224.426 50.0795 223.361 49.6535 221.832 49.305L216.546 48.2013C213.525 47.5624 211.25 46.4975 209.721 45.0066C208.21 43.4963 207.455 41.5795 207.455 39.256V39.227C207.455 37.2327 207.988 35.5095 209.053 34.0573C210.117 32.6052 211.628 31.4822 213.583 30.6883C215.558 29.8751 217.862 29.4685 220.496 29.4685C223.245 29.4685 225.578 29.9138 227.495 30.8045C229.431 31.6758 230.912 32.8569 231.939 34.3477C232.984 35.8386 233.536 37.4941 233.594 39.3141V39.6046H225.781L225.752 39.3722C225.617 38.2492 225.094 37.3198 224.184 36.5841C223.293 35.8289 222.064 35.4514 220.496 35.4514C219.527 35.4514 218.685 35.5869 217.969 35.858C217.252 36.1291 216.701 36.5163 216.313 37.0197C215.926 37.5038 215.732 38.0846 215.732 38.7623V38.7913C215.732 39.5852 216.042 40.2532 216.662 40.7953C217.281 41.3375 218.375 41.7731 219.944 42.1023L225.23 43.235C228.502 43.9126 230.845 44.9291 232.258 46.2845C233.691 47.6398 234.407 49.4599 234.407 51.7446V51.7736C234.407 53.8067 233.826 55.5783 232.665 57.0885C231.503 58.5988 229.896 59.7799 227.843 60.6318C225.81 61.4644 223.458 61.8806 220.786 61.8806Z" fill="white"/>
<rect x="18.2286" y="13.3408" width="7.36869" height="12.6702" fill="white"/>
<rect x="18.2286" y="54.6025" width="7.36869" height="12.6702" fill="white"/>
<path d="M253.652 48.0271V41.1729H263.933C266.451 41.1729 268.406 40.5339 269.8 39.256C271.214 37.9588 271.92 36.1194 271.92 33.7378V33.6798C271.92 31.2982 271.214 29.4685 269.8 28.1906C268.406 26.9127 266.451 26.2738 263.933 26.2738L253.652 26.2738V19.3324L266.083 19.3324C269.026 19.3324 271.601 19.9327 273.808 21.1331C276.015 22.3142 277.729 23.9793 278.949 26.1285C280.188 28.2777 280.808 30.7851 280.808 33.6507V33.7088C280.808 36.5938 280.188 39.1108 278.949 41.26C277.729 43.4092 276.015 45.0743 273.808 46.2554C271.601 47.4365 269.026 48.0271 266.083 48.0271H253.652ZM249.238 61.2417V19.3324L258.009 19.3324V61.2417H249.238ZM292.512 61.7354C290.44 61.7354 288.62 61.3385 287.052 60.5447C285.483 59.7315 284.254 58.6181 283.363 57.2047C282.492 55.7719 282.056 54.1455 282.056 52.3255V52.2674C282.056 49.4405 283.112 47.2235 285.222 45.6165C287.333 43.9901 290.314 43.051 294.167 42.7993L306.307 42.0442V47.33L295.445 48.0271C293.819 48.1239 292.58 48.5111 291.728 49.1888C290.876 49.8471 290.45 50.7281 290.45 51.8317V51.8898C290.45 53.0322 290.885 53.9325 291.757 54.5908C292.628 55.2298 293.799 55.5492 295.271 55.5492C296.53 55.5492 297.653 55.3072 298.64 54.8232C299.647 54.3197 300.431 53.6421 300.993 52.7901C301.573 51.9189 301.864 50.9411 301.864 49.8568V40.4178C301.864 39.0431 301.428 37.9588 300.557 37.1649C299.686 36.3517 298.417 35.9451 296.752 35.9451C295.165 35.9451 293.906 36.2743 292.977 36.9326C292.047 37.5909 291.476 38.4235 291.263 39.4303L291.205 39.6917H283.45L283.479 39.3432C283.634 37.4263 284.264 35.7225 285.367 34.2316C286.49 32.7407 288.039 31.579 290.014 30.7464C292.008 29.8945 294.371 29.4685 297.101 29.4685C299.792 29.4685 302.125 29.9041 304.1 30.7754C306.075 31.6274 307.605 32.8375 308.689 34.4058C309.793 35.9742 310.344 37.8039 310.344 39.895V61.2417H301.864V56.5948H301.69C301.109 57.6597 300.354 58.5794 299.424 59.3539C298.514 60.109 297.478 60.6996 296.317 61.1255C295.155 61.5321 293.887 61.7354 292.512 61.7354ZM320.539 71.4939C319.706 71.4939 318.902 71.4552 318.128 71.3778C317.353 71.3003 316.715 71.2132 316.211 71.1164V64.814C316.521 64.8721 316.918 64.9302 317.402 64.9883C317.886 65.0657 318.438 65.1044 319.057 65.1044C320.335 65.1044 321.342 64.8915 322.078 64.4655C322.814 64.0395 323.365 63.3038 323.733 62.2582L324.111 61.2417L313.103 30.1074H322.426L329.455 56.1301L328.322 54.4456H329.919L328.787 56.1301L335.815 30.1074H344.761L334.073 61.7935C333.259 64.2331 332.233 66.1597 330.994 67.5731C329.774 68.9865 328.303 69.9934 326.58 70.5936C324.856 71.1938 322.843 71.4939 320.539 71.4939Z" fill="#9776FF"/>
</svg>
