<svg width="193" height="171" viewBox="0 0 193 171" fill="none" xmlns="http://www.w3.org/2000/svg">
<g filter="url(#filter0_d_1684_7061)">
<rect x="17" y="10" width="142.767" height="120.457" rx="9" fill="url(#paint0_linear_1684_7061)" shape-rendering="crispEdges"/>
<rect x="16.5" y="9.5" width="143.767" height="121.457" rx="9.5" stroke="url(#paint1_linear_1684_7061)" shape-rendering="crispEdges"/>
</g>
<path fill-rule="evenodd" clip-rule="evenodd" d="M132.631 117.879C132.631 118.431 132.184 118.879 131.631 118.879H42.9033C42.351 118.879 41.9033 118.431 41.9033 117.879V108.27C41.9033 107.718 42.351 107.27 42.9033 107.27H131.631C132.184 107.27 132.631 107.718 132.631 108.27V117.879Z" fill="#D9D9D9"/>
<circle cx="47.8975" cy="113.075" r="2.66357" fill="#302146"/>
<circle cx="51.5669" cy="113.075" r="3.16357" fill="#302146" stroke="#D9D9D9"/>
<circle cx="56.1313" cy="113.075" r="3.16357" fill="#302146" stroke="#D9D9D9"/>
<path d="M17 19C17 14.0294 21.0294 10 26 10H150.767C155.738 10 159.767 14.0294 159.767 19V26.8428H17V19Z" fill="#100B17"/>
<path fill-rule="evenodd" clip-rule="evenodd" d="M68.4429 62.9654C68.4429 64.2799 67.3773 65.3454 66.0628 65.3454H44.2824C42.9679 65.3454 41.9023 64.2799 41.9023 62.9654V42.0012C41.9023 40.6867 42.9679 39.6211 44.2824 39.6211H66.0628C67.3773 39.6211 68.4429 40.6867 68.4429 42.0012V62.9654Z" fill="#A581EA" stroke="#C2AEFF" stroke-width="2"/>
<path d="M57.6331 51.6493C56.9473 52.3373 56.1132 52.6812 55.1308 52.6812C54.1484 52.6812 53.305 52.3373 52.6007 51.6493C51.9149 50.9427 51.572 50.0967 51.572 49.1112C51.572 48.1257 51.9149 47.2889 52.6007 46.6009C53.305 45.8944 54.1484 45.5411 55.1308 45.5411C56.1132 45.5411 56.9473 45.8944 57.6331 46.6009C58.3375 47.2889 58.6896 48.1257 58.6896 49.1112C58.6896 50.0967 58.3375 50.9427 57.6331 51.6493ZM57.6331 53.5738C58.6526 53.5738 59.5237 53.9457 60.2466 54.6894C60.9881 55.4146 61.3588 56.2885 61.3588 57.3112V58.4827C61.3588 58.8545 61.229 59.1706 60.9695 59.431C60.71 59.6913 60.3949 59.8214 60.0242 59.8214H50.2374C49.8667 59.8214 49.5516 59.6913 49.2921 59.431C49.0326 59.1706 48.9028 58.8545 48.9028 58.4827V57.3112C48.9028 56.2885 49.2643 55.4146 49.9872 54.6894C50.7286 53.9457 51.609 53.5738 52.6285 53.5738H53.1011C53.7499 53.8713 54.4264 54.02 55.1308 54.02C55.8352 54.02 56.5117 53.8713 57.1605 53.5738H57.6331Z" fill="#302146"/>
<path fill-rule="evenodd" clip-rule="evenodd" d="M100.537 62.9654C100.537 64.2799 99.4715 65.3454 98.157 65.3454H76.3766C75.0622 65.3454 73.9966 64.2799 73.9966 62.9654V42.0012C73.9966 40.6867 75.0622 39.6211 76.3766 39.6211H98.157C99.4715 39.6211 100.537 40.6867 100.537 42.0012V62.9654Z" fill="#A581EA" stroke="#C2AEFF" stroke-width="2"/>
<path d="M89.6263 51.649C88.9405 52.337 88.1064 52.681 87.124 52.681C86.1416 52.681 85.2982 52.337 84.5939 51.649C83.908 50.9424 83.5651 50.0964 83.5651 49.1109C83.5651 48.1254 83.908 47.2887 84.5939 46.6007C85.2982 45.8941 86.1416 45.5408 87.124 45.5408C88.1064 45.5408 88.9405 45.8941 89.6263 46.6007C90.3306 47.2887 90.6828 48.1254 90.6828 49.1109C90.6828 50.0964 90.3306 50.9424 89.6263 51.649ZM89.6263 53.5735C90.6457 53.5735 91.5169 53.9454 92.2398 54.6892C92.9812 55.4143 93.3519 56.2883 93.3519 57.311V58.4824C93.3519 58.8543 93.2222 59.1704 92.9627 59.4307C92.7032 59.691 92.3881 59.8212 92.0174 59.8212H82.2306C81.8598 59.8212 81.5447 59.691 81.2852 59.4307C81.0257 59.1704 80.896 58.8543 80.896 58.4824V57.311C80.896 56.2883 81.2574 55.4143 81.9803 54.6892C82.7218 53.9454 83.6022 53.5735 84.6217 53.5735H85.0943C85.7431 53.871 86.4196 54.0198 87.124 54.0198C87.8283 54.0198 88.5049 53.871 89.1536 53.5735H89.6263Z" fill="#302146"/>
<path fill-rule="evenodd" clip-rule="evenodd" d="M132.631 62.9654C132.631 64.2799 131.566 65.3454 130.251 65.3454H108.471C107.156 65.3454 106.091 64.2799 106.091 62.9654V42.0012C106.091 40.6867 107.156 39.6211 108.471 39.6211H130.251C131.566 39.6211 132.631 40.6867 132.631 42.0012V62.9654Z" fill="#64587A"/>
<path d="M121.619 51.6493C120.933 52.3373 120.099 52.6812 119.117 52.6812C118.134 52.6812 117.291 52.3373 116.587 51.6493C115.901 50.9427 115.558 50.0967 115.558 49.1112C115.558 48.1257 115.901 47.2889 116.587 46.6009C117.291 45.8944 118.134 45.5411 119.117 45.5411C120.099 45.5411 120.933 45.8944 121.619 46.6009C122.323 47.2889 122.675 48.1257 122.675 49.1112C122.675 50.0967 122.323 50.9427 121.619 51.6493ZM121.619 53.5738C122.638 53.5738 123.51 53.9457 124.232 54.6894C124.974 55.4146 125.345 56.2885 125.345 57.3112V58.4827C125.345 58.8545 125.215 59.1706 124.955 59.431C124.696 59.6913 124.381 59.8214 124.01 59.8214H114.223C113.853 59.8214 113.537 59.6913 113.278 59.431C113.018 59.1706 112.889 58.8545 112.889 58.4827V57.3112C112.889 56.2885 113.25 55.4146 113.973 54.6894C114.714 53.9457 115.595 53.5738 116.614 53.5738H117.087C117.736 53.8713 118.412 54.02 119.117 54.02C119.821 54.02 120.498 53.8713 121.146 53.5738H121.619Z" fill="#302146"/>
<path fill-rule="evenodd" clip-rule="evenodd" d="M68.4429 94.2427C68.4429 95.5572 67.3773 96.6228 66.0628 96.6228H44.2824C42.9679 96.6228 41.9023 95.5572 41.9023 94.2427V73.2785C41.9023 71.964 42.9679 70.8984 44.2824 70.8984H66.0628C67.3773 70.8984 68.4429 71.964 68.4429 73.2785V94.2427Z" fill="#64587A"/>
<path d="M57.6331 82.9266C56.9473 83.6146 56.1132 83.9586 55.1308 83.9586C54.1484 83.9586 53.305 83.6146 52.6007 82.9266C51.9149 82.22 51.572 81.374 51.572 80.3885C51.572 79.403 51.9149 78.5662 52.6007 77.8782C53.305 77.1717 54.1484 76.8184 55.1308 76.8184C56.1132 76.8184 56.9473 77.1717 57.6331 77.8782C58.3375 78.5662 58.6896 79.403 58.6896 80.3885C58.6896 81.374 58.3375 82.22 57.6331 82.9266ZM57.6331 84.8511C58.6526 84.8511 59.5237 85.223 60.2466 85.9667C60.9881 86.6919 61.3588 87.5658 61.3588 88.5885V89.76C61.3588 90.1319 61.229 90.448 60.9695 90.7083C60.71 90.9686 60.3949 91.0988 60.0242 91.0988H50.2374C49.8667 91.0988 49.5516 90.9686 49.2921 90.7083C49.0326 90.448 48.9028 90.1319 48.9028 89.76V88.5885C48.9028 87.5658 49.2643 86.6919 49.9872 85.9667C50.7286 85.223 51.609 84.8511 52.6285 84.8511H53.1011C53.7499 85.1486 54.4264 85.2973 55.1308 85.2973C55.8352 85.2973 56.5117 85.1486 57.1605 84.8511H57.6331Z" fill="#302146"/>
<path fill-rule="evenodd" clip-rule="evenodd" d="M100.537 94.2427C100.537 95.5572 99.4715 96.6228 98.157 96.6228H76.3766C75.0622 96.6228 73.9966 95.5572 73.9966 94.2427V73.2785C73.9966 71.964 75.0622 70.8984 76.3766 70.8984H98.157C99.4715 70.8984 100.537 71.964 100.537 73.2785V94.2427Z" fill="#A581EA" stroke="#C2AEFF" stroke-width="2"/>
<path d="M89.7273 82.9266C89.0415 83.6146 88.2074 83.9586 87.225 83.9586C86.2427 83.9586 85.3993 83.6146 84.6949 82.9266C84.0091 82.22 83.6662 81.374 83.6662 80.3885C83.6662 79.403 84.0091 78.5662 84.6949 77.8782C85.3993 77.1717 86.2427 76.8184 87.225 76.8184C88.2074 76.8184 89.0415 77.1717 89.7273 77.8782C90.4317 78.5662 90.7839 79.403 90.7839 80.3885C90.7839 81.374 90.4317 82.22 89.7273 82.9266ZM89.7273 84.8511C90.7468 84.8511 91.618 85.223 92.3409 85.9667C93.0823 86.6919 93.453 87.5658 93.453 88.5885V89.76C93.453 90.1319 93.3233 90.448 93.0638 90.7083C92.8043 90.9686 92.4892 91.0988 92.1184 91.0988H82.3316C81.9609 91.0988 81.6458 90.9686 81.3863 90.7083C81.1268 90.448 80.9971 90.1319 80.9971 89.76V88.5885C80.9971 87.5658 81.3585 86.6919 82.0814 85.9667C82.8228 85.223 83.7033 84.8511 84.7227 84.8511H85.1954C85.8441 85.1486 86.5207 85.2973 87.225 85.2973C87.9294 85.2973 88.6059 85.1486 89.2547 84.8511H89.7273Z" fill="#302146"/>
<path fill-rule="evenodd" clip-rule="evenodd" d="M132.631 94.2427C132.631 95.5572 131.566 96.6228 130.251 96.6228H108.471C107.156 96.6228 106.091 95.5572 106.091 94.2427V73.2785C106.091 71.964 107.156 70.8984 108.471 70.8984H130.251C131.566 70.8984 132.631 71.964 132.631 73.2785V94.2427Z" fill="#64587A"/>
<circle cx="26.4289" cy="18.4216" r="3.1579" fill="#36343A"/>
<circle cx="38.7448" cy="18.4216" r="3.1579" fill="#36343A"/>
<circle cx="51.0602" cy="18.4216" r="3.1579" fill="#36343A"/>
<path d="M112.649 76.8184L119.38 98.1973L123.354 86.8682L136.404 83.9447L112.649 76.8184Z" fill="white" stroke="#C2AEFF" stroke-width="2"/>
<defs>
<filter id="filter0_d_1684_7061" x="0" y="0" width="192.767" height="170.457" filterUnits="userSpaceOnUse" color-interpolation-filters="sRGB">
<feFlood flood-opacity="0" result="BackgroundImageFix"/>
<feColorMatrix in="SourceAlpha" type="matrix" values="0 0 0 0 0 0 0 0 0 0 0 0 0 0 0 0 0 0 127 0" result="hardAlpha"/>
<feOffset dx="8" dy="15"/>
<feGaussianBlur stdDeviation="12"/>
<feComposite in2="hardAlpha" operator="out"/>
<feColorMatrix type="matrix" values="0 0 0 0 0 0 0 0 0 0 0 0 0 0 0 0 0 0 0.25 0"/>
<feBlend mode="normal" in2="BackgroundImageFix" result="effect1_dropShadow_1684_7061"/>
<feBlend mode="normal" in="SourceGraphic" in2="effect1_dropShadow_1684_7061" result="shape"/>
</filter>
<linearGradient id="paint0_linear_1684_7061" x1="-34.8581" y1="-10.15" x2="64.4417" y2="150.23" gradientUnits="userSpaceOnUse">
<stop stop-color="#3A3A3A"/>
<stop offset="1" stop-color="#2F2146"/>
</linearGradient>
<linearGradient id="paint1_linear_1684_7061" x1="21.7236" y1="-0.597854" x2="88.3835" y2="123.474" gradientUnits="userSpaceOnUse">
<stop stop-color="white" stop-opacity="0.17"/>
<stop offset="1" stop-color="white" stop-opacity="0"/>
</linearGradient>
</defs>
</svg>
