<svg width="193" height="171" viewBox="0 0 193 171" fill="none" xmlns="http://www.w3.org/2000/svg">
<g filter="url(#filter0_d_1684_6843)">
<rect x="17" y="10" width="142.767" height="120.457" rx="9" fill="url(#paint0_linear_1684_6843)" shape-rendering="crispEdges"/>
<rect x="16.5" y="9.5" width="143.767" height="121.457" rx="9.5" stroke="url(#paint1_linear_1684_6843)" shape-rendering="crispEdges"/>
</g>
<path d="M17 19C17 14.0294 21.0294 10 26 10H150.767C155.738 10 159.767 14.0294 159.767 19V26.8428H17V19Z" fill="#100B17"/>
<g clip-path="url(#clip0_1684_6843)">
<path fill-rule="evenodd" clip-rule="evenodd" d="M68.4429 69.0337C68.4429 70.3482 67.3773 71.4138 66.0628 71.4138H44.2824C42.9679 71.4138 41.9023 70.3482 41.9023 69.0337V48.0695C41.9023 46.755 42.9679 45.6895 44.2824 45.6895H66.0628C67.3773 45.6895 68.4429 46.755 68.4429 48.0695V69.0337Z" fill="#64587A"/>
<path d="M57.6331 57.7176C56.9473 58.4056 56.1132 58.7496 55.1308 58.7496C54.1484 58.7496 53.305 58.4056 52.6007 57.7176C51.9149 57.0111 51.572 56.165 51.572 55.1795C51.572 54.194 51.9149 53.3573 52.6007 52.6693C53.305 51.9627 54.1484 51.6094 55.1308 51.6094C56.1132 51.6094 56.9473 51.9627 57.6331 52.6693C58.3375 53.3573 58.6896 54.194 58.6896 55.1795C58.6896 56.165 58.3375 57.0111 57.6331 57.7176ZM57.6331 59.6421C58.6526 59.6421 59.5237 60.014 60.2466 60.7578C60.9881 61.483 61.3588 62.3569 61.3588 63.3796V64.551C61.3588 64.9229 61.229 65.239 60.9695 65.4993C60.71 65.7597 60.3949 65.8898 60.0242 65.8898H50.2374C49.8667 65.8898 49.5516 65.7597 49.2921 65.4993C49.0326 65.239 48.9028 64.9229 48.9028 64.551V63.3796C48.9028 62.3569 49.2643 61.483 49.9872 60.7578C50.7286 60.014 51.609 59.6421 52.6285 59.6421H53.1011C53.7499 59.9397 54.4264 60.0884 55.1308 60.0884C55.8352 60.0884 56.5117 59.9397 57.1605 59.6421H57.6331Z" fill="#302146"/>
<path fill-rule="evenodd" clip-rule="evenodd" d="M100.537 56.1712C100.537 57.4857 99.4715 58.5513 98.157 58.5513H76.3766C75.0622 58.5513 73.9966 57.4857 73.9966 56.1712V35.207C73.9966 33.8925 75.0622 32.8269 76.3766 32.8269H98.157C99.4715 32.8269 100.537 33.8925 100.537 35.207V56.1712Z" fill="#64587A"/>
<path d="M89.6263 44.8548C88.9405 45.5428 88.1064 45.8868 87.124 45.8868C86.1416 45.8868 85.2982 45.5428 84.5939 44.8548C83.908 44.1482 83.5651 43.3022 83.5651 42.3167C83.5651 41.3312 83.908 40.4944 84.5939 39.8065C85.2982 39.0999 86.1416 38.7466 87.124 38.7466C88.1064 38.7466 88.9405 39.0999 89.6263 39.8065C90.3306 40.4944 90.6828 41.3312 90.6828 42.3167C90.6828 43.3022 90.3306 44.1482 89.6263 44.8548ZM89.6263 46.7793C90.6457 46.7793 91.5169 47.1512 92.2398 47.8949C92.9812 48.6201 93.3519 49.4941 93.3519 50.5167V51.6882C93.3519 52.0601 93.2222 52.3762 92.9627 52.6365C92.7032 52.8968 92.3881 53.027 92.0174 53.027H82.2306C81.8598 53.027 81.5447 52.8968 81.2852 52.6365C81.0257 52.3762 80.896 52.0601 80.896 51.6882V50.5167C80.896 49.4941 81.2574 48.6201 81.9803 47.8949C82.7218 47.1512 83.6022 46.7793 84.6217 46.7793H85.0943C85.7431 47.0768 86.4196 47.2256 87.124 47.2256C87.8283 47.2256 88.5049 47.0768 89.1536 46.7793H89.6263Z" fill="#302146"/>
<path fill-rule="evenodd" clip-rule="evenodd" d="M132.631 69.0337C132.631 70.3482 131.565 71.4138 130.251 71.4138H108.47C107.156 71.4138 106.09 70.3482 106.09 69.0337V48.0695C106.09 46.755 107.156 45.6895 108.47 45.6895H130.251C131.565 45.6895 132.631 46.755 132.631 48.0695V69.0337Z" fill="#64587A"/>
<path d="M121.618 57.7176C120.933 58.4056 120.099 58.7496 119.116 58.7496C118.134 58.7496 117.29 58.4056 116.586 57.7176C115.9 57.0111 115.557 56.165 115.557 55.1795C115.557 54.194 115.9 53.3573 116.586 52.6693C117.29 51.9627 118.134 51.6094 119.116 51.6094C120.099 51.6094 120.933 51.9627 121.618 52.6693C122.323 53.3573 122.675 54.194 122.675 55.1795C122.675 56.165 122.323 57.0111 121.618 57.7176ZM121.618 59.6421C122.638 59.6421 123.509 60.014 124.232 60.7578C124.973 61.483 125.344 62.3569 125.344 63.3796V64.551C125.344 64.9229 125.214 65.239 124.955 65.4993C124.695 65.7597 124.38 65.8898 124.01 65.8898H114.223C113.852 65.8898 113.537 65.7597 113.277 65.4993C113.018 65.239 112.888 64.9229 112.888 64.551V63.3796C112.888 62.3569 113.25 61.483 113.973 60.7578C114.714 60.014 115.594 59.6421 116.614 59.6421H117.087C117.735 59.9397 118.412 60.0884 119.116 60.0884C119.821 60.0884 120.497 59.9397 121.146 59.6421H121.618Z" fill="#302146"/>
<path fill-rule="evenodd" clip-rule="evenodd" d="M68.4429 100.311C68.4429 101.626 67.3773 102.691 66.0628 102.691H44.2824C42.9679 102.691 41.9023 101.626 41.9023 100.311V79.3469C41.9023 78.0324 42.9679 76.9669 44.2824 76.9669H66.0628C67.3773 76.9669 68.4429 78.0324 68.4429 79.3469V100.311Z" fill="#64587A"/>
<path d="M57.6331 88.995C56.9473 89.683 56.1132 90.027 55.1308 90.027C54.1484 90.027 53.305 89.683 52.6007 88.995C51.9149 88.2884 51.572 87.4424 51.572 86.4569C51.572 85.4714 51.9149 84.6346 52.6007 83.9467C53.305 83.2401 54.1484 82.8868 55.1308 82.8868C56.1132 82.8868 56.9473 83.2401 57.6331 83.9467C58.3375 84.6346 58.6896 85.4714 58.6896 86.4569C58.6896 87.4424 58.3375 88.2884 57.6331 88.995ZM57.6331 90.9195C58.6526 90.9195 59.5237 91.2914 60.2466 92.0351C60.9881 92.7603 61.3588 93.6343 61.3588 94.6569V95.8284C61.3588 96.2003 61.229 96.5164 60.9695 96.7767C60.71 97.037 60.3949 97.1672 60.0242 97.1672H50.2374C49.8667 97.1672 49.5516 97.037 49.2921 96.7767C49.0326 96.5164 48.9028 96.2003 48.9028 95.8284V94.6569C48.9028 93.6343 49.2643 92.7603 49.9872 92.0351C50.7286 91.2914 51.609 90.9195 52.6285 90.9195H53.1011C53.7499 91.217 54.4264 91.3658 55.1308 91.3658C55.8352 91.3658 56.5117 91.217 57.1605 90.9195H57.6331Z" fill="#302146"/>
<path fill-rule="evenodd" clip-rule="evenodd" d="M132.631 100.311C132.631 101.626 131.565 102.691 130.251 102.691H108.47C107.156 102.691 106.09 101.626 106.09 100.311V79.3469C106.09 78.0324 107.156 76.9669 108.47 76.9669H130.251C131.565 76.9669 132.631 78.0324 132.631 79.3469V100.311Z" fill="#64587A"/>
<path d="M121.619 88.995C120.933 89.683 120.099 90.027 119.117 90.027C118.134 90.027 117.291 89.683 116.587 88.995C115.901 88.2884 115.558 87.4424 115.558 86.4569C115.558 85.4714 115.901 84.6346 116.587 83.9467C117.291 83.2401 118.134 82.8868 119.117 82.8868C120.099 82.8868 120.933 83.2401 121.619 83.9467C122.323 84.6346 122.675 85.4714 122.675 86.4569C122.675 87.4424 122.323 88.2884 121.619 88.995ZM121.619 90.9195C122.638 90.9195 123.51 91.2914 124.232 92.0351C124.974 92.7603 125.345 93.6343 125.345 94.6569V95.8284C125.345 96.2003 125.215 96.5164 124.955 96.7767C124.696 97.037 124.381 97.1672 124.01 97.1672H114.223C113.853 97.1672 113.537 97.037 113.278 96.7767C113.018 96.5164 112.889 96.2003 112.889 95.8284V94.6569C112.889 93.6343 113.25 92.7603 113.973 92.0351C114.714 91.2914 115.595 90.9195 116.614 90.9195H117.087C117.736 91.217 118.412 91.3658 119.117 91.3658C119.821 91.3658 120.498 91.217 121.146 90.9195H121.619Z" fill="#302146"/>
<path fill-rule="evenodd" clip-rule="evenodd" d="M68.4429 131.589C68.4429 132.904 67.3773 133.97 66.0628 133.97H44.2824C42.9679 133.97 41.9023 132.904 41.9023 131.589V110.625C41.9023 109.311 42.9679 108.245 44.2824 108.245H66.0628C67.3773 108.245 68.4429 109.311 68.4429 110.625V131.589Z" fill="#64587A"/>
<path fill-rule="evenodd" clip-rule="evenodd" d="M100.537 118.727C100.537 120.041 99.4715 121.107 98.157 121.107H76.3766C75.0622 121.107 73.9966 120.041 73.9966 118.727V97.7626C73.9966 96.4482 75.0622 95.3826 76.3766 95.3826H98.157C99.4715 95.3826 100.537 96.4482 100.537 97.7626V118.727Z" fill="#64587A"/>
<path d="M89.6263 107.411C88.9405 108.099 88.1064 108.442 87.124 108.442C86.1416 108.442 85.2982 108.099 84.5939 107.411C83.908 106.704 83.5651 105.858 83.5651 104.872C83.5651 103.887 83.908 103.05 84.5939 102.362C85.2982 101.656 86.1416 101.302 87.124 101.302C88.1064 101.302 88.9405 101.656 89.6263 102.362C90.3306 103.05 90.6828 103.887 90.6828 104.872C90.6828 105.858 90.3306 106.704 89.6263 107.411ZM89.6263 109.335C90.6457 109.335 91.5169 109.707 92.2398 110.451C92.9812 111.176 93.3519 112.05 93.3519 113.072V114.244C93.3519 114.616 93.2222 114.932 92.9627 115.192C92.7032 115.453 92.3881 115.583 92.0174 115.583H82.2306C81.8598 115.583 81.5447 115.453 81.2852 115.192C81.0257 114.932 80.896 114.616 80.896 114.244V113.072C80.896 112.05 81.2574 111.176 81.9803 110.451C82.7218 109.707 83.6022 109.335 84.6217 109.335H85.0943C85.7431 109.633 86.4196 109.781 87.124 109.781C87.8283 109.781 88.5049 109.633 89.1536 109.335H89.6263Z" fill="#302146"/>
<path fill-rule="evenodd" clip-rule="evenodd" d="M132.631 131.589C132.631 132.904 131.565 133.97 130.251 133.97H108.47C107.156 133.97 106.09 132.904 106.09 131.589V110.625C106.09 109.311 107.156 108.245 108.47 108.245H130.251C131.565 108.245 132.631 109.311 132.631 110.625V131.589Z" fill="#64587A"/>
<path fill-rule="evenodd" clip-rule="evenodd" d="M106.09 78.3434C106.09 88.7394 97.6625 97.167 87.2665 97.167V97.167C76.8705 97.167 68.4429 88.7394 68.4429 78.3434V77.3734C68.4429 66.9774 76.8705 58.5498 87.2665 58.5498V58.5498C97.6625 58.5498 106.09 66.9774 106.09 77.3734V78.3434Z" fill="#302146"/>
<path d="M90.9563 75.6883C90.1068 76.5405 89.0736 76.9666 87.8567 76.9666C86.6398 76.9666 85.5951 76.5405 84.7226 75.6883C83.8731 74.8131 83.4483 73.7651 83.4483 72.5443C83.4483 71.3236 83.8731 70.2871 84.7226 69.4349C85.5951 68.5597 86.6398 68.1221 87.8567 68.1221C89.0736 68.1221 90.1068 68.5597 90.9563 69.4349C91.8288 70.2871 92.265 71.3236 92.265 72.5443C92.265 73.7651 91.8288 74.8131 90.9563 75.6883ZM90.9563 78.0722C92.2191 78.0722 93.2982 78.5328 94.1936 79.4541C95.112 80.3524 95.5712 81.435 95.5712 82.7017V84.1528C95.5712 84.6135 95.4105 85.005 95.0891 85.3275C94.7676 85.6499 94.3773 85.8112 93.9181 85.8112H81.7952C81.336 85.8112 80.9457 85.6499 80.6243 85.3275C80.3028 85.005 80.1421 84.6135 80.1421 84.1528V82.7017C80.1421 81.435 80.5898 80.3524 81.4853 79.4541C82.4037 78.5328 83.4943 78.0722 84.7571 78.0722H85.3425C86.1461 78.4407 86.9842 78.625 87.8567 78.625C88.7292 78.625 89.5672 78.4407 90.3708 78.0722H90.9563Z" fill="#C2AEFF"/>
<g filter="url(#filter1_d_1684_6843)">
<circle cx="87.8568" cy="77.9819" r="20.6764" stroke="#C2AEFF" stroke-width="4.76013" shape-rendering="crispEdges"/>
</g>
<rect x="98.9326" y="93.6797" width="7.94452" height="20.5993" rx="3.17342" transform="rotate(-45 98.9326 93.6797)" fill="#C2AEFF"/>
</g>
<circle cx="26.4289" cy="18.4216" r="3.1579" fill="#36343A"/>
<circle cx="38.7448" cy="18.4216" r="3.1579" fill="#36343A"/>
<circle cx="51.0602" cy="18.4216" r="3.1579" fill="#36343A"/>
<defs>
<filter id="filter0_d_1684_6843" x="0" y="0" width="192.767" height="170.457" filterUnits="userSpaceOnUse" color-interpolation-filters="sRGB">
<feFlood flood-opacity="0" result="BackgroundImageFix"/>
<feColorMatrix in="SourceAlpha" type="matrix" values="0 0 0 0 0 0 0 0 0 0 0 0 0 0 0 0 0 0 127 0" result="hardAlpha"/>
<feOffset dx="8" dy="15"/>
<feGaussianBlur stdDeviation="12"/>
<feComposite in2="hardAlpha" operator="out"/>
<feColorMatrix type="matrix" values="0 0 0 0 0 0 0 0 0 0 0 0 0 0 0 0 0 0 0.25 0"/>
<feBlend mode="normal" in2="BackgroundImageFix" result="effect1_dropShadow_1684_6843"/>
<feBlend mode="normal" in="SourceGraphic" in2="effect1_dropShadow_1684_6843" result="shape"/>
</filter>
<filter id="filter1_d_1684_6843" x="53.6933" y="43.8185" width="68.3267" height="68.3268" filterUnits="userSpaceOnUse" color-interpolation-filters="sRGB">
<feFlood flood-opacity="0" result="BackgroundImageFix"/>
<feColorMatrix in="SourceAlpha" type="matrix" values="0 0 0 0 0 0 0 0 0 0 0 0 0 0 0 0 0 0 127 0" result="hardAlpha"/>
<feOffset/>
<feGaussianBlur stdDeviation="5.55348"/>
<feComposite in2="hardAlpha" operator="out"/>
<feColorMatrix type="matrix" values="0 0 0 0 0.458824 0 0 0 0 0.32549 0 0 0 0 0.886275 0 0 0 1 0"/>
<feBlend mode="normal" in2="BackgroundImageFix" result="effect1_dropShadow_1684_6843"/>
<feBlend mode="normal" in="SourceGraphic" in2="effect1_dropShadow_1684_6843" result="shape"/>
</filter>
<linearGradient id="paint0_linear_1684_6843" x1="-34.8581" y1="-10.15" x2="64.4417" y2="150.23" gradientUnits="userSpaceOnUse">
<stop stop-color="#3A3A3A"/>
<stop offset="1" stop-color="#2F2146"/>
</linearGradient>
<linearGradient id="paint1_linear_1684_6843" x1="21.7236" y1="-0.597854" x2="88.3835" y2="123.474" gradientUnits="userSpaceOnUse">
<stop stop-color="white" stop-opacity="0.17"/>
<stop offset="1" stop-color="white" stop-opacity="0"/>
</linearGradient>
<clipPath id="clip0_1684_6843">
<rect width="90.4424" height="68.2285" fill="white" transform="translate(41.9023 45.6895)"/>
</clipPath>
</defs>
</svg>
