<svg width="80" height="83" viewBox="0 0 80 83" fill="none" xmlns="http://www.w3.org/2000/svg">
<path d="M53.2261 47.0748C52.2763 53.1961 47.4763 57.0016 40.6898 57.0016C32.1235 57.0016 26.5894 50.4902 26.5894 40.416C26.5894 30.8945 32.0396 24.9913 40.8156 24.9913C47.0209 24.9913 51.6711 28.5418 52.6598 34.0366L52.7797 34.6816H64.4381L64.3243 33.7909C62.8022 21.7478 53.4568 13.6577 41.0763 13.6577H40.6988C33.5797 13.6577 27.0478 16.3698 22.3048 21.2933C17.4778 26.3058 14.8711 33.2165 14.9819 40.7292C14.886 48.4815 17.5497 55.5703 22.4726 60.6935C27.2246 65.6262 33.7445 68.3413 40.8396 68.3413H41.2051C53.2891 68.3413 63.0329 59.7014 64.8995 47.3297L65.0374 46.4083H53.334L53.2261 47.0748Z" fill="white"/>
<path d="M39.994 82.0069C17.9416 82.0069 0 63.6061 0 40.9973C0 18.3886 17.9416 0 39.994 0C62.0464 0 80 18.3917 80 40.9973C80 63.603 62.0494 82.0069 39.994 82.0069ZM39.994 7.89969C33.606 7.8997 27.3614 9.84161 22.05 13.4798C16.7387 17.1181 12.5991 22.2892 10.155 28.3392C7.71076 34.3893 7.07171 41.0464 8.31861 47.4688C9.56551 53.8911 12.6424 59.7902 17.16 64.4199C21.6777 69.0496 27.4332 72.202 33.6988 73.4784C39.9643 74.7548 46.4583 74.0978 52.3596 71.5906C58.2609 69.0834 63.3043 64.8386 66.852 59.393C70.3998 53.9474 72.2924 47.5456 72.2906 40.9973C72.2811 32.2201 68.8753 23.8053 62.8205 17.5991C56.7657 11.393 48.5564 7.9025 39.994 7.89355" fill="white"/>
</svg>
