<svg width="40" height="32" viewBox="0 0 40 32" fill="none" xmlns="http://www.w3.org/2000/svg">
<path d="M35.5 23C36.75 23 37.8125 23.4375 38.6875 24.3125C39.5625 25.1875 40 26.25 40 27.5C40 28.75 39.5625 29.8125 38.6875 30.6875C37.8125 31.5625 36.75 32 35.5 32C34.25 32 33.1875 31.5625 32.3125 30.6875C31.4375 29.8125 31 28.75 31 27.5C31 27.4167 31.0208 27.2083 31.0625 26.875L25.9375 24C24.5625 25.3333 22.9167 26 21 26C19.0833 26 17.4375 25.3125 16.0625 23.9375C14.6875 22.5625 14 20.9167 14 19C14 16.7083 14.9167 14.875 16.75 13.5L14.6875 9C14.5625 9 14.5 9 14.5 9C13.6667 9 12.8958 8.8125 12.1875 8.4375C11.5208 8.02083 10.9792 7.47917 10.5625 6.8125C10.1875 6.10417 10 5.33333 10 4.5C10 3.25 10.4375 2.1875 11.3125 1.3125C12.1875 0.4375 13.25 0 14.5 0C15.75 0 16.8125 0.4375 17.6875 1.3125C18.5625 2.1875 19 3.25 19 4.5C19 5.83333 18.4792 6.95833 17.4375 7.875L19.5 12.1875C20 12.0625 20.5 12 21 12C22.9167 12 24.5625 12.6875 25.9375 14.0625C27.3125 15.4375 28 17.0833 28 19C28 19.7917 27.8542 20.6042 27.5625 21.4375L32.4375 24.25C33.3125 23.4167 34.3333 23 35.5 23ZM13.4375 5.5625C13.7292 5.85417 14.0833 6 14.5 6C14.9167 6 15.2708 5.85417 15.5625 5.5625C15.8542 5.27083 16 4.91667 16 4.5C16 4.08333 15.8542 3.72917 15.5625 3.4375C15.2708 3.14583 14.9167 3 14.5 3C14.0833 3 13.7292 3.14583 13.4375 3.4375C13.1458 3.72917 13 4.08333 13 4.5C13 4.91667 13.1458 5.27083 13.4375 5.5625ZM18.1875 21.8125C18.9792 22.6042 19.9167 23 21 23C22.0833 23 23.0208 22.6042 23.8125 21.8125C24.6042 21.0208 25 20.0833 25 19C25 17.9167 24.6042 16.9792 23.8125 16.1875C23.0208 15.3958 22.0833 15 21 15C19.9167 15 18.9792 15.3958 18.1875 16.1875C17.3958 16.9792 17 17.9167 17 19C17 20.0833 17.3958 21.0208 18.1875 21.8125ZM34.4375 28.5625C34.7292 28.8542 35.0833 29 35.5 29C35.9167 29 36.2708 28.8542 36.5625 28.5625C36.8542 28.2708 37 27.9167 37 27.5C37 27.0833 36.8542 26.7292 36.5625 26.4375C36.2708 26.1458 35.9167 26 35.5 26C35.0833 26 34.7292 26.1458 34.4375 26.4375C34.1458 26.7292 34 27.0833 34 27.5C34 27.9167 34.1458 28.2708 34.4375 28.5625ZM32.125 12.6875L29.125 14.9375L27.875 13.3125L30.875 11.0625L32.125 12.6875ZM38.8125 10.8125C38.0208 11.6042 37.0833 12 36 12C34.9167 12 33.9792 11.6042 33.1875 10.8125C32.3958 10.0208 32 9.08333 32 8C32 6.91667 32.3958 5.97917 33.1875 5.1875C33.9792 4.39583 34.9167 4 36 4C37.0833 4 38.0208 4.39583 38.8125 5.1875C39.6042 5.97917 40 6.91667 40 8C40 9.08333 39.6042 10.0208 38.8125 10.8125ZM9.5 20V18H12.5V20H9.5ZM1.1875 16.1875C1.97917 15.3958 2.91667 15 4 15C5.08333 15 6.02083 15.3958 6.8125 16.1875C7.60417 16.9792 8 17.9167 8 19C8 20.0833 7.60417 21.0208 6.8125 21.8125C6.02083 22.6042 5.08333 23 4 23C2.91667 23 1.97917 22.6042 1.1875 21.8125C0.395833 21.0208 0 20.0833 0 19C0 17.9167 0.395833 16.9792 1.1875 16.1875Z" fill="white"/>
</svg>
