<svg width="31" height="32" viewBox="0 0 31 32" fill="none" xmlns="http://www.w3.org/2000/svg">
<path d="M8.75 9.3125C10.625 7.4375 12.875 6.5 15.5 6.5C18.125 6.5 20.3542 7.4375 22.1875 9.3125C24.0625 11.1458 25 13.375 25 16C25 18.625 24.0625 20.875 22.1875 22.75C20.3542 24.5833 18.125 25.5 15.5 25.5C12.875 25.5 10.625 24.5833 8.75 22.75C6.91667 20.875 6 18.625 6 16C6 13.375 6.91667 11.1458 8.75 9.3125ZM10.875 20.625C12.1667 21.875 13.7083 22.5 15.5 22.5C17.2917 22.5 18.8125 21.875 20.0625 20.625C21.3542 19.3333 22 17.7917 22 16C22 14.2083 21.3542 12.6875 20.0625 11.4375C18.8125 10.1458 17.2917 9.5 15.5 9.5C13.7083 9.5 12.1667 10.1458 10.875 11.4375C9.625 12.6875 9 14.2083 9 16C9 17.7917 9.625 19.3333 10.875 20.625ZM4.5 5.0625C7.54167 2.02083 11.2083 0.5 15.5 0.5C19.7917 0.5 23.4375 2.02083 26.4375 5.0625C29.4792 8.0625 31 11.7083 31 16C31 20.2917 29.4792 23.9583 26.4375 27C23.4375 30 19.7917 31.5 15.5 31.5C11.2083 31.5 7.54167 30 4.5 27C1.5 23.9583 0 20.2917 0 16C0 11.7083 1.5 8.0625 4.5 5.0625ZM6.625 24.875C9.08333 27.2917 12.0417 28.5 15.5 28.5C18.9583 28.5 21.8958 27.2917 24.3125 24.875C26.7708 22.4167 28 19.4583 28 16C28 12.5417 26.7708 9.60417 24.3125 7.1875C21.8958 4.72917 18.9583 3.5 15.5 3.5C12.0417 3.5 9.08333 4.72917 6.625 7.1875C4.20833 9.60417 3 12.5417 3 16C3 19.4583 4.20833 22.4167 6.625 24.875ZM13 13.5625C13.7083 12.8542 14.5417 12.5 15.5 12.5C16.4583 12.5 17.2708 12.8542 17.9375 13.5625C18.6458 14.2292 19 15.0417 19 16C19 16.9583 18.6458 17.7917 17.9375 18.5C17.2708 19.1667 16.4583 19.5 15.5 19.5C14.5417 19.5 13.7083 19.1667 13 18.5C12.3333 17.7917 12 16.9583 12 16C12 15.0417 12.3333 14.2292 13 13.5625Z" fill="white"/>
</svg>
