<svg width="40" height="28" viewBox="0 0 40 28" fill="none" xmlns="http://www.w3.org/2000/svg">
<path d="M8.8125 10.8125C8.02083 11.6042 7.08333 12 6 12C4.91667 12 3.97917 11.6042 3.1875 10.8125C2.39583 10.0208 2 9.08333 2 8C2 6.91667 2.39583 5.97917 3.1875 5.1875C3.97917 4.39583 4.91667 4 6 4C7.08333 4 8.02083 4.39583 8.8125 5.1875C9.60417 5.97917 10 6.91667 10 8C10 9.08333 9.60417 10.0208 8.8125 10.8125ZM36.8125 10.8125C36.0208 11.6042 35.0833 12 34 12C32.9167 12 31.9792 11.6042 31.1875 10.8125C30.3958 10.0208 30 9.08333 30 8C30 6.91667 30.3958 5.97917 31.1875 5.1875C31.9792 4.39583 32.9167 4 34 4C35.0833 4 36.0208 4.39583 36.8125 5.1875C37.6042 5.97917 38 6.91667 38 8C38 9.08333 37.6042 10.0208 36.8125 10.8125ZM36 14C37.0833 14 38.0208 14.3958 38.8125 15.1875C39.6042 15.9792 40 16.9167 40 18V20C40 20.5417 39.7917 21.0208 39.375 21.4375C39 21.8125 38.5417 22 38 22H33.875C33.75 21.0417 33.4792 20.125 33.0625 19.25C32.6458 18.375 32.1042 17.6042 31.4375 16.9375C30.7708 16.2292 30.0208 15.6458 29.1875 15.1875C29.9792 14.3958 30.9167 14 32 14H36ZM24.9375 11.9375C23.5625 13.3125 21.9167 14 20 14C18.0833 14 16.4375 13.3125 15.0625 11.9375C13.6875 10.5625 13 8.91667 13 7C13 5.08333 13.6875 3.4375 15.0625 2.0625C16.4375 0.6875 18.0833 0 20 0C21.9167 0 23.5625 0.6875 24.9375 2.0625C26.3125 3.4375 27 5.08333 27 7C27 8.91667 26.3125 10.5625 24.9375 11.9375ZM24.8125 16C26.8125 16 28.5 16.7083 29.875 18.125C31.2917 19.5 32 21.1875 32 23.1875V25C32 25.8333 31.7083 26.5417 31.125 27.125C30.5417 27.7083 29.8333 28 29 28H11C10.1667 28 9.45833 27.7083 8.875 27.125C8.29167 26.5417 8 25.8333 8 25V23.1875C8 21.1875 8.6875 19.5 10.0625 18.125C11.4792 16.7083 13.1875 16 15.1875 16H15.75C17.125 16.6667 18.5417 17 20 17C21.4583 17 22.875 16.6667 24.25 16H24.8125ZM10.8125 15.1875C9.5625 15.8542 8.52083 16.7917 7.6875 18C6.85417 19.2083 6.33333 20.5417 6.125 22H2C1.45833 22 0.979167 21.8125 0.5625 21.4375C0.1875 21.0208 0 20.5417 0 20V18C0 16.9167 0.395833 15.9792 1.1875 15.1875C1.97917 14.3958 2.91667 14 4 14H8C9.08333 14 10.0208 14.3958 10.8125 15.1875Z" fill="white"/>
</svg>
