<svg width="31" height="32" viewBox="0 0 31 32" fill="none" xmlns="http://www.w3.org/2000/svg">
<path d="M4.5 5.0625C7.54167 2.02083 11.2083 0.5 15.5 0.5C19.7917 0.5 23.4375 2.02083 26.4375 5.0625C29.4792 8.0625 31 11.7083 31 16C31 20.2917 29.4792 23.9583 26.4375 27C23.4375 30 19.7917 31.5 15.5 31.5C11.2083 31.5 7.54167 30 4.5 27C1.5 23.9583 0 20.2917 0 16C0 11.7083 1.5 8.0625 4.5 5.0625ZM19.375 8.125C18.2917 7.04167 17 6.5 15.5 6.5C14 6.5 12.7083 7.04167 11.625 8.125C10.5417 9.20833 10 10.5 10 12C10 13.5 10.5417 14.7917 11.625 15.875C12.7083 16.9583 14 17.5 15.5 17.5C17 17.5 18.2917 16.9583 19.375 15.875C20.4583 14.7917 21 13.5 21 12C21 10.5 20.4583 9.20833 19.375 8.125ZM6.375 23.75C8.75 26.5833 11.7917 28 15.5 28C19.2083 28 22.25 26.5833 24.625 23.75C24.0417 22.625 23.2083 21.7292 22.125 21.0625C21.0417 20.3542 19.8333 20 18.5 20C18.375 20 18.2292 20.0208 18.0625 20.0625C17.1875 20.3542 16.3333 20.5 15.5 20.5C14.6667 20.5 13.8125 20.3542 12.9375 20.0625C12.7708 20.0208 12.625 20 12.5 20C11.1667 20 9.95833 20.3542 8.875 21.0625C7.79167 21.7292 6.95833 22.625 6.375 23.75Z" fill="white"/>
</svg>
