<svg width="119" height="118" viewBox="0 0 119 118" fill="none" xmlns="http://www.w3.org/2000/svg">
<g filter="url(#filter0_d_2213_7060)">
<rect x="12" y="7" width="84" height="84" rx="6.19106" fill="url(#paint0_linear_2213_7060)"/>
<rect x="12.3439" y="7.34395" width="83.3121" height="83.3121" rx="5.84711" stroke="url(#paint1_linear_2213_7060)" stroke-width="0.687895"/>
</g>
<path d="M42.6803 45.0403C41.9005 45.8201 40.9771 46.21 39.91 46.21C38.8429 46.21 37.9195 45.8201 37.1397 45.0403C36.3599 44.2605 35.97 43.3371 35.97 42.27C35.97 41.2029 36.3599 40.2795 37.1397 39.4997C37.9195 38.7199 38.8429 38.33 39.91 38.33C40.9771 38.33 41.9005 38.7199 42.6803 39.4997C43.4601 40.2795 43.85 41.2029 43.85 42.27C43.85 43.3371 43.4601 44.2605 42.6803 45.0403ZM70.2603 45.0403C69.4805 45.8201 68.5571 46.21 67.49 46.21C66.4229 46.21 65.4995 45.8201 64.7197 45.0403C63.9399 44.2605 63.55 43.3371 63.55 42.27C63.55 41.2029 63.9399 40.2795 64.7197 39.4997C65.4995 38.7199 66.4229 38.33 67.49 38.33C68.5571 38.33 69.4805 38.7199 70.2603 39.4997C71.0401 40.2795 71.43 41.2029 71.43 42.27C71.43 43.3371 71.0401 44.2605 70.2603 45.0403ZM69.46 48.18C70.5271 48.18 71.4505 48.5699 72.2303 49.3497C73.0101 50.1295 73.4 51.0529 73.4 52.12V54.09C73.4 54.6235 73.1948 55.0955 72.7844 55.5059C72.415 55.8753 71.9635 56.06 71.43 56.06H67.3669C67.2438 55.116 66.977 54.2131 66.5666 53.3512C66.1561 52.4894 65.6226 51.7301 64.9659 51.0734C64.3093 50.3757 63.5705 49.8011 62.7497 49.3497C63.5295 48.5699 64.4529 48.18 65.52 48.18H69.46ZM58.5634 46.1484C57.2091 47.5028 55.5879 48.18 53.7 48.18C51.8121 48.18 50.1909 47.5028 48.8366 46.1484C47.4822 44.7941 46.805 43.1729 46.805 41.285C46.805 39.3971 47.4822 37.7759 48.8366 36.4216C50.1909 35.0672 51.8121 34.39 53.7 34.39C55.5879 34.39 57.2091 35.0672 58.5634 36.4216C59.9178 37.7759 60.595 39.3971 60.595 41.285C60.595 43.1729 59.9178 44.7941 58.5634 46.1484ZM58.4403 50.15C60.4103 50.15 62.0725 50.8477 63.4269 52.2431C64.8223 53.5975 65.52 55.2597 65.52 57.2297V59.015C65.52 59.8358 65.2327 60.5335 64.6581 61.1081C64.0835 61.6827 63.3858 61.97 62.565 61.97H44.835C44.0142 61.97 43.3165 61.6827 42.7419 61.1081C42.1673 60.5335 41.88 59.8358 41.88 59.015V57.2297C41.88 55.2597 42.5572 53.5975 43.9116 52.2431C45.307 50.8477 46.9897 50.15 48.9597 50.15H49.5138C50.8681 50.8067 52.2635 51.135 53.7 51.135C55.1365 51.135 56.5319 50.8067 57.8863 50.15H58.4403ZM44.6503 49.3497C43.4191 50.0064 42.393 50.9298 41.5722 52.12C40.7514 53.3102 40.2383 54.6235 40.0331 56.06H35.97C35.4365 56.06 34.9645 55.8753 34.5541 55.5059C34.1847 55.0955 34 54.6235 34 54.09V52.12C34 51.0529 34.3899 50.1295 35.1697 49.3497C35.9495 48.5699 36.8729 48.18 37.94 48.18H41.88C42.9471 48.18 43.8705 48.5699 44.6503 49.3497Z" fill="#C2AEFF"/>
<defs>
<filter id="filter0_d_2213_7060" x="0.993673" y="0.808941" width="117.019" height="117.019" filterUnits="userSpaceOnUse" color-interpolation-filters="sRGB">
<feFlood flood-opacity="0" result="BackgroundImageFix"/>
<feColorMatrix in="SourceAlpha" type="matrix" values="0 0 0 0 0 0 0 0 0 0 0 0 0 0 0 0 0 0 127 0" result="hardAlpha"/>
<feOffset dx="5.50316" dy="10.3184"/>
<feGaussianBlur stdDeviation="8.25475"/>
<feComposite in2="hardAlpha" operator="out"/>
<feColorMatrix type="matrix" values="0 0 0 0 0 0 0 0 0 0 0 0 0 0 0 0 0 0 0.25 0"/>
<feBlend mode="normal" in2="BackgroundImageFix" result="effect1_dropShadow_2213_7060"/>
<feBlend mode="normal" in="SourceGraphic" in2="effect1_dropShadow_2213_7060" result="shape"/>
</filter>
<linearGradient id="paint0_linear_2213_7060" x1="22.9273" y1="19.1172" x2="74.1565" y2="82.8753" gradientUnits="userSpaceOnUse">
<stop stop-color="#413158"/>
<stop offset="1" stop-color="#30273E"/>
</linearGradient>
<linearGradient id="paint1_linear_2213_7060" x1="39.5956" y1="19.3583" x2="71.1094" y2="70.6707" gradientUnits="userSpaceOnUse">
<stop stop-color="white" stop-opacity="0.17"/>
<stop offset="1" stop-color="white" stop-opacity="0"/>
</linearGradient>
</defs>
</svg>
