<svg width="119" height="118" viewBox="0 0 119 118" fill="none" xmlns="http://www.w3.org/2000/svg">
<g filter="url(#filter0_d_2213_7028)">
<rect x="12" y="7" width="84" height="84" rx="6.19106" fill="url(#paint0_linear_2213_7028)"/>
<rect x="12.3439" y="7.34395" width="83.3121" height="83.3121" rx="5.84711" stroke="url(#paint1_linear_2213_7028)" stroke-width="0.687895"/>
</g>
<path d="M55.4121 34.207C56.0579 36.306 56.9258 38.3242 58.0156 40.2617C59.1055 42.1589 60.0944 43.6523 60.9824 44.7422C61.8704 45.832 62.6374 47.1237 63.2832 48.6172C63.9694 50.0703 64.3125 51.5638 64.3125 53.0977C64.3125 56.0846 63.263 58.6276 61.1641 60.7266C59.1055 62.8255 56.6029 63.875 53.6562 63.875C50.7096 63.875 48.1868 62.8255 46.0879 60.7266C44.0293 58.6276 43 56.0846 43 53.0977C43 51.5638 43.3229 50.0703 43.9688 48.6172C44.6549 47.1641 45.4421 45.8724 46.3301 44.7422C47.2585 43.612 48.2474 42.0983 49.2969 40.2012C50.3867 38.304 51.2546 36.306 51.9004 34.207C52.1829 33.319 52.7682 32.875 53.6562 32.875C54.5846 32.875 55.1699 33.319 55.4121 34.207ZM53.6562 60C53.9388 60 54.1608 59.9193 54.3223 59.7578C54.5241 59.556 54.625 59.3138 54.625 59.0312C54.625 58.7487 54.5241 58.5267 54.3223 58.3652C54.1608 58.1634 53.9388 58.0625 53.6562 58.0625C52.3242 58.0625 51.1738 57.5983 50.2051 56.6699C49.2767 55.7012 48.8125 54.5508 48.8125 53.2188C48.8125 52.9362 48.7116 52.7142 48.5098 52.5527C48.3483 52.3509 48.1263 52.25 47.8438 52.25C47.5612 52.25 47.319 52.3509 47.1172 52.5527C46.9557 52.7142 46.875 52.9362 46.875 53.2188C46.875 55.0755 47.541 56.6699 48.873 58.002C50.2051 59.334 51.7995 60 53.6562 60Z" fill="#C2AEFF"/>
<defs>
<filter id="filter0_d_2213_7028" x="0.993673" y="0.808941" width="117.019" height="117.019" filterUnits="userSpaceOnUse" color-interpolation-filters="sRGB">
<feFlood flood-opacity="0" result="BackgroundImageFix"/>
<feColorMatrix in="SourceAlpha" type="matrix" values="0 0 0 0 0 0 0 0 0 0 0 0 0 0 0 0 0 0 127 0" result="hardAlpha"/>
<feOffset dx="5.50316" dy="10.3184"/>
<feGaussianBlur stdDeviation="8.25475"/>
<feComposite in2="hardAlpha" operator="out"/>
<feColorMatrix type="matrix" values="0 0 0 0 0 0 0 0 0 0 0 0 0 0 0 0 0 0 0.25 0"/>
<feBlend mode="normal" in2="BackgroundImageFix" result="effect1_dropShadow_2213_7028"/>
<feBlend mode="normal" in="SourceGraphic" in2="effect1_dropShadow_2213_7028" result="shape"/>
</filter>
<linearGradient id="paint0_linear_2213_7028" x1="22.9273" y1="19.1172" x2="74.1565" y2="82.8753" gradientUnits="userSpaceOnUse">
<stop stop-color="#413158"/>
<stop offset="1" stop-color="#30273E"/>
</linearGradient>
<linearGradient id="paint1_linear_2213_7028" x1="39.5956" y1="19.3583" x2="71.1094" y2="70.6707" gradientUnits="userSpaceOnUse">
<stop stop-color="white" stop-opacity="0.17"/>
<stop offset="1" stop-color="white" stop-opacity="0"/>
</linearGradient>
</defs>
</svg>
