<svg width="119" height="118" viewBox="0 0 119 118" fill="none" xmlns="http://www.w3.org/2000/svg">
<g filter="url(#filter0_d_2213_7052)">
<rect x="12" y="7" width="84" height="84" rx="6.19106" fill="url(#paint0_linear_2213_7052)"/>
<rect x="12.3439" y="7.34395" width="83.3121" height="83.3121" rx="5.84711" stroke="url(#paint1_linear_2213_7052)" stroke-width="0.687895"/>
</g>
<path d="M69.002 43.1367C69.2038 43.3789 69.2038 43.6009 69.002 43.8027L66.9434 45.8613C66.7012 46.1035 66.459 46.1035 66.2168 45.8613L65.5508 45.1953L50.6562 60.0898C49.4453 61.3008 47.972 61.9062 46.2363 61.9062C44.3392 61.9062 42.765 61.1797 41.5137 59.7266C40.4238 58.4349 39.9395 56.9616 40.0605 55.3066C40.1816 53.6517 40.8477 52.2188 42.0586 51.0078L56.7109 36.416L56.0449 35.75C55.8431 35.5078 55.8431 35.2656 56.0449 35.0234L58.1035 32.9648C58.3457 32.763 58.5879 32.763 58.8301 32.9648L69.002 43.1367ZM59.3145 47.375L63.5527 43.1973L58.7695 38.4141L49.8086 47.375H59.3145Z" fill="#C2AEFF"/>
<defs>
<filter id="filter0_d_2213_7052" x="0.993673" y="0.808941" width="117.019" height="117.019" filterUnits="userSpaceOnUse" color-interpolation-filters="sRGB">
<feFlood flood-opacity="0" result="BackgroundImageFix"/>
<feColorMatrix in="SourceAlpha" type="matrix" values="0 0 0 0 0 0 0 0 0 0 0 0 0 0 0 0 0 0 127 0" result="hardAlpha"/>
<feOffset dx="5.50316" dy="10.3184"/>
<feGaussianBlur stdDeviation="8.25475"/>
<feComposite in2="hardAlpha" operator="out"/>
<feColorMatrix type="matrix" values="0 0 0 0 0 0 0 0 0 0 0 0 0 0 0 0 0 0 0.25 0"/>
<feBlend mode="normal" in2="BackgroundImageFix" result="effect1_dropShadow_2213_7052"/>
<feBlend mode="normal" in="SourceGraphic" in2="effect1_dropShadow_2213_7052" result="shape"/>
</filter>
<linearGradient id="paint0_linear_2213_7052" x1="22.9273" y1="19.1172" x2="74.1565" y2="82.8753" gradientUnits="userSpaceOnUse">
<stop stop-color="#413158"/>
<stop offset="1" stop-color="#30273E"/>
</linearGradient>
<linearGradient id="paint1_linear_2213_7052" x1="39.5956" y1="19.3583" x2="71.1094" y2="70.6707" gradientUnits="userSpaceOnUse">
<stop stop-color="white" stop-opacity="0.17"/>
<stop offset="1" stop-color="white" stop-opacity="0"/>
</linearGradient>
</defs>
</svg>
