<svg width="119" height="118" viewBox="0 0 119 118" fill="none" xmlns="http://www.w3.org/2000/svg">
<g filter="url(#filter0_d_2213_7044)">
<rect x="12" y="7" width="84" height="84" rx="6.19106" fill="url(#paint0_linear_2213_7044)"/>
<rect x="12.3439" y="7.34395" width="83.3121" height="83.3121" rx="5.84711" stroke="url(#paint1_linear_2213_7044)" stroke-width="0.687895"/>
</g>
<path d="M67.7051 36.6895C69.6022 38.304 70.6113 40.3626 70.7324 42.8652C70.8535 45.3678 70.0462 47.487 68.3105 49.2227L56.625 61.332C56.2214 61.7357 55.7572 61.9375 55.2324 61.9375C54.7077 61.9375 54.2435 61.7357 53.8398 61.332L42.1543 49.2227C40.4186 47.487 39.6113 45.3678 39.7324 42.8652C39.8535 40.3626 40.8626 38.304 42.7598 36.6895C44.4147 35.2767 46.3118 34.6712 48.4512 34.873C50.6309 35.0345 52.4876 35.9023 54.0215 37.4766L55.2324 38.6875L56.4434 37.4766C57.9772 35.9023 59.8138 35.0345 61.9531 34.873C64.1328 34.6712 66.0501 35.2767 67.7051 36.6895Z" fill="#C2AEFF"/>
<defs>
<filter id="filter0_d_2213_7044" x="0.993673" y="0.808941" width="117.019" height="117.019" filterUnits="userSpaceOnUse" color-interpolation-filters="sRGB">
<feFlood flood-opacity="0" result="BackgroundImageFix"/>
<feColorMatrix in="SourceAlpha" type="matrix" values="0 0 0 0 0 0 0 0 0 0 0 0 0 0 0 0 0 0 127 0" result="hardAlpha"/>
<feOffset dx="5.50316" dy="10.3184"/>
<feGaussianBlur stdDeviation="8.25475"/>
<feComposite in2="hardAlpha" operator="out"/>
<feColorMatrix type="matrix" values="0 0 0 0 0 0 0 0 0 0 0 0 0 0 0 0 0 0 0.25 0"/>
<feBlend mode="normal" in2="BackgroundImageFix" result="effect1_dropShadow_2213_7044"/>
<feBlend mode="normal" in="SourceGraphic" in2="effect1_dropShadow_2213_7044" result="shape"/>
</filter>
<linearGradient id="paint0_linear_2213_7044" x1="22.9273" y1="19.1172" x2="74.1565" y2="82.8753" gradientUnits="userSpaceOnUse">
<stop stop-color="#413158"/>
<stop offset="1" stop-color="#30273E"/>
</linearGradient>
<linearGradient id="paint1_linear_2213_7044" x1="39.5956" y1="19.3583" x2="71.1094" y2="70.6707" gradientUnits="userSpaceOnUse">
<stop stop-color="white" stop-opacity="0.17"/>
<stop offset="1" stop-color="white" stop-opacity="0"/>
</linearGradient>
</defs>
</svg>
