<svg width="119" height="118" viewBox="0 0 119 118" fill="none" xmlns="http://www.w3.org/2000/svg">
<g filter="url(#filter0_d_2213_7036)">
<rect x="12" y="7" width="84" height="84" rx="6.19106" fill="url(#paint0_linear_2213_7036)"/>
<rect x="12.3439" y="7.34395" width="83.3121" height="83.3121" rx="5.84711" stroke="url(#paint1_linear_2213_7036)" stroke-width="0.687895"/>
</g>
<path d="M58.8981 37.4681C58.3235 38.0427 57.6258 38.33 56.805 38.33C55.9842 38.33 55.2865 38.0427 54.7119 37.4681C54.1373 36.8935 53.85 36.1958 53.85 35.375C53.85 34.5542 54.1373 33.8565 54.7119 33.2819C55.2865 32.7073 55.9842 32.42 56.805 32.42C57.6258 32.42 58.3235 32.7073 58.8981 33.2819C59.4727 33.8565 59.76 34.5542 59.76 35.375C59.76 36.1958 59.4727 36.8935 58.8981 37.4681ZM62.5919 47.5028C63.0844 47.7491 63.4127 48.139 63.5769 48.6725C63.7821 49.165 63.7616 49.6575 63.5153 50.15C63.2691 50.6425 62.8792 50.9708 62.3456 51.135C61.8531 51.2992 61.3606 51.2581 60.8681 51.0119L59.4522 50.3347C58.5082 49.8422 57.8516 49.0829 57.4822 48.0569L57.1744 47.0103L56.1278 51.2581L58.8981 54.3362C59.3496 54.7877 59.6574 55.3418 59.8216 55.9984L61.1759 61.4775C61.2991 62.011 61.217 62.5035 60.9297 62.955C60.6834 63.4475 60.2935 63.7553 59.76 63.8784C59.2265 64.0016 58.7134 63.9195 58.2209 63.6322C57.7695 63.3859 57.4822 62.996 57.3591 62.4625L56.2509 57.9069C56.0868 57.2912 55.779 56.7372 55.3275 56.2447L51.6338 52.1816C50.6898 51.1555 50.382 49.9448 50.7103 48.5494L51.6338 44.8556L50.0331 45.5328C49.5406 45.697 49.1918 46.0048 48.9866 46.4562L48.5556 47.3181C48.3094 47.7696 47.94 48.0979 47.4475 48.3031C46.955 48.4673 46.4625 48.4262 45.97 48.18C45.4775 47.9337 45.1492 47.5644 44.985 47.0719C44.8208 46.5383 44.8619 46.0253 45.1081 45.5328L45.4775 44.6709C46.1342 43.3576 47.1602 42.4136 48.5556 41.8391C48.7198 41.798 49.0071 41.6954 49.4175 41.5312C49.869 41.326 50.1563 41.2029 50.2794 41.1619C50.4435 41.0798 50.6898 40.9772 51.0181 40.8541C51.3875 40.7309 51.6543 40.6489 51.8184 40.6078C52.0236 40.5668 52.2699 40.5257 52.5572 40.4847C52.8445 40.4026 53.1318 40.3616 53.4191 40.3616C53.7064 40.3205 53.9936 40.3 54.2809 40.3C55.7174 40.3 57.0102 40.7309 58.1594 41.5928C59.3085 42.4547 60.1294 43.5833 60.6219 44.9787L61.1759 46.7641L62.5919 47.5028ZM48.5556 56.1831L49.7869 52.9819C50.1152 53.3923 51.1002 54.5004 52.7419 56.3062L51.88 58.3994C51.6748 58.8919 51.3875 59.3228 51.0181 59.6922L47.3859 63.3859C46.9755 63.7553 46.5035 63.94 45.97 63.94C45.4365 63.94 44.9645 63.7348 44.5541 63.3244C44.1847 62.955 44 62.5035 44 61.97C44 61.4365 44.1847 60.9645 44.5541 60.5541L47.6322 57.4759C48.0426 57.1066 48.3504 56.6756 48.5556 56.1831Z" fill="#C2AEFF"/>
<defs>
<filter id="filter0_d_2213_7036" x="0.993673" y="0.808941" width="117.019" height="117.019" filterUnits="userSpaceOnUse" color-interpolation-filters="sRGB">
<feFlood flood-opacity="0" result="BackgroundImageFix"/>
<feColorMatrix in="SourceAlpha" type="matrix" values="0 0 0 0 0 0 0 0 0 0 0 0 0 0 0 0 0 0 127 0" result="hardAlpha"/>
<feOffset dx="5.50316" dy="10.3184"/>
<feGaussianBlur stdDeviation="8.25475"/>
<feComposite in2="hardAlpha" operator="out"/>
<feColorMatrix type="matrix" values="0 0 0 0 0 0 0 0 0 0 0 0 0 0 0 0 0 0 0.25 0"/>
<feBlend mode="normal" in2="BackgroundImageFix" result="effect1_dropShadow_2213_7036"/>
<feBlend mode="normal" in="SourceGraphic" in2="effect1_dropShadow_2213_7036" result="shape"/>
</filter>
<linearGradient id="paint0_linear_2213_7036" x1="22.9273" y1="19.1172" x2="74.1565" y2="82.8753" gradientUnits="userSpaceOnUse">
<stop stop-color="#413158"/>
<stop offset="1" stop-color="#30273E"/>
</linearGradient>
<linearGradient id="paint1_linear_2213_7036" x1="39.5956" y1="19.3583" x2="71.1094" y2="70.6707" gradientUnits="userSpaceOnUse">
<stop stop-color="white" stop-opacity="0.17"/>
<stop offset="1" stop-color="white" stop-opacity="0"/>
</linearGradient>
</defs>
</svg>
